<?xml version="1.0" standalone="no"?>
<!DOCTYPE svg PUBLIC "-//W3C//DTD SVG 20010904//EN"
 "http://www.w3.org/TR/2001/REC-SVG-20010904/DTD/svg10.dtd">
<svg version="1.0" xmlns="http://www.w3.org/2000/svg"
 width="760.000000pt" height="760.000000pt" viewBox="0 0 760.000000 760.000000"
 preserveAspectRatio="xMidYMid meet">
<metadata>
Created by potrace 1.14, written by Peter Selinger 2001-2017
</metadata>
<g transform="translate(0.000000,760.000000) scale(0.100000,-0.100000)"
fill="#000000" stroke="none">
<path d="M0 5693 c1 -1428 3 -1903 12 -1888 6 11 15 23 20 26 6 3 9 9 9 13 -3
20 0 26 11 20 6 -4 8 -3 4 4 -7 12 33 102 46 102 4 0 8 6 8 14 0 7 7 19 15 26
20 17 95 4 95 -17 0 -12 -3 -13 -14 -4 -11 9 -19 2 -43 -36 -15 -27 -34 -57
-41 -68 -55 -87 -66 -159 -38 -242 5 -15 13 -20 27 -18 11 2 17 0 14 -6 -4 -5
-11 -7 -16 -4 -5 4 -9 0 -9 -7 0 -8 -3 -9 -8 -3 -4 6 -26 11 -49 12 l-43 1 0
-744 c0 -593 3 -744 12 -738 10 6 11 4 1 -7 -10 -10 -13 -238 -13 -1071 l0
-1058 826 0 826 0 -4 25 c-7 32 5 32 22 0 11 -21 21 -25 57 -25 33 0 42 3 37
13 -5 8 -2 7 9 -2 15 -12 17 -12 11 2 -4 12 -1 14 15 10 12 -3 21 -9 21 -14 0
-5 5 -9 11 -9 5 0 7 5 3 11 -4 8 -1 8 12 1 11 -5 43 -10 72 -11 42 -2 52 1 46
11 -5 10 -4 11 7 0 7 -6 24 -12 39 -12 20 0 22 2 10 10 -9 6 -10 10 -3 10 6 0
15 -4 18 -10 3 -5 14 -10 23 -10 15 0 15 2 2 10 -9 6 -10 10 -3 10 6 0 15 -5
18 -10 10 -17 25 -11 19 8 -5 14 -3 14 10 -2 14 -17 19 -16 18 4 0 3 13 5 29
5 17 1 29 -4 29 -12 0 -11 502 -13 2710 -13 l2710 0 0 380 -1 380 -57 26
c-108 49 -120 54 -137 54 -10 0 -32 9 -50 20 -19 11 -37 20 -42 19 -4 -1 -25
6 -46 15 -30 13 -42 14 -53 5 -12 -9 -13 -9 -9 3 5 14 -21 30 -65 42 -3 1 -15
7 -28 14 -12 7 -27 10 -32 7 -6 -3 -10 -1 -10 4 0 6 -9 11 -19 11 -11 0 -22 4
-25 9 -3 5 -24 8 -46 7 -22 -1 -40 1 -40 4 0 3 -9 6 -20 6 -11 0 -20 -5 -20
-11 0 -5 -4 -4 -8 2 -5 7 -42 15 -87 19 -44 3 -83 8 -87 11 -5 2 -8 -2 -8 -9
0 -9 -3 -9 -8 -2 -6 10 -78 18 -144 17 -15 0 -25 4 -22 9 7 11 530 1 586 -11
44 -10 228 -81 376 -145 46 -20 88 -36 93 -36 5 0 9 468 9 1159 l0 1160 -127
-1 c-71 0 -134 -5 -140 -10 -7 -6 -13 -7 -13 -2 0 5 -29 10 -65 11 -50 2 -64
-1 -59 -10 5 -9 4 -9 -7 1 -7 6 -17 12 -22 12 -4 0 -5 -6 -1 -12 6 -10 4 -10
-7 -2 -9 8 -72 11 -194 9 -99 -1 -181 -4 -182 -5 -6 -6 -29 -6 -38 0 -5 4 -41
6 -80 5 -38 -1 -82 2 -97 6 -17 5 -30 3 -34 -3 -5 -7 -2 -8 6 -3 9 5 11 4 6
-4 -4 -6 -13 -8 -19 -4 -7 4 -96 8 -199 9 -190 1 -193 1 -189 -36 2 -13 0 -13
-8 -1 -5 8 -7 20 -4 26 5 15 -84 15 -106 0 -10 -5 -12 -4 -7 3 4 7 3 12 -3 12
-5 0 -13 -5 -16 -10 -5 -8 -11 -7 -20 0 -17 14 -38 4 -28 -13 3 -7 -2 -5 -13
5 -22 19 -150 22 -173 4 -8 -6 -12 -6 -9 -1 4 6 -12 11 -40 12 -31 1 -41 -1
-31 -8 19 -12 2 -11 -22 1 -13 8 -25 7 -40 -1 -15 -8 -19 -8 -15 0 10 15 -37
14 -52 -1 -7 -7 -12 -8 -12 -2 0 14 -143 14 -152 0 -5 -8 -8 -8 -8 -1 0 7 -22
11 -52 10 -54 -1 -68 7 -68 36 0 15 52 17 618 19 339 1 770 3 957 5 187 2 436
4 553 4 l212 1 0 1460 c0 1161 -3 1460 -12 1460 -9 0 -10 2 -2 8 17 11 19 212
2 212 -9 0 -9 3 2 10 13 8 12 10 -2 10 -10 0 -18 -4 -18 -10 0 -5 -12 -10 -27
-10 -22 0 -25 2 -13 10 12 8 11 10 -7 10 -15 0 -23 6 -23 18 0 10 3 13 8 7 8
-12 32 -14 32 -2 0 4 0 14 0 23 0 10 -6 14 -15 10 -9 -3 -15 0 -15 10 0 10 -6
14 -14 11 -8 -3 -17 -1 -20 6 -5 9 -7 9 -12 0 -4 -10 -8 -10 -19 0 -7 7 -11
15 -8 19 2 4 -3 5 -12 2 -8 -4 -21 -1 -29 5 -7 6 -16 8 -19 4 -4 -3 -20 -8
-37 -10 -24 -2 -28 0 -24 15 4 10 3 13 -3 6 -15 -20 -42 -24 -51 -8 -8 14 -12
14 -30 3 -21 -13 -26 -25 -23 -59 0 -10 -1 -11 -5 -2 -3 6 -14 12 -25 12 -10
0 -19 4 -19 10 0 5 6 7 14 4 8 -3 17 -1 21 5 4 7 0 8 -11 4 -10 -3 -15 -2 -12
3 4 5 -11 9 -33 8 -21 0 -39 3 -39 7 0 5 -6 6 -14 3 -9 -4 -14 0 -12 10 3 21
16 33 17 15 0 -8 4 -6 9 6 6 13 9 15 9 5 1 -16 41 -46 41 -31 0 5 -6 11 -12
14 -7 2 -10 8 -5 12 4 5 13 3 19 -3 7 -7 18 -12 26 -12 12 0 12 3 2 15 -9 10
-9 15 -1 15 6 0 11 10 11 22 0 19 -1 20 -12 6 -29 -37 -88 -18 -88 28 0 48 81
57 96 11 7 -22 7 -21 16 6 9 25 14 27 59 27 37 0 49 -4 49 -15 0 -8 -4 -15
-10 -15 -5 0 -10 -9 -10 -20 0 -34 28 -23 32 12 4 40 34 51 46 17 l9 -23 5 22
c6 23 48 32 48 10 0 -9 3 -9 12 0 16 16 53 15 67 -2 9 -11 9 -15 -1 -19 -10
-4 -10 -6 0 -6 15 -1 16 -33 1 -48 -8 -8 -7 -13 2 -18 7 -5 10 -4 6 2 -4 6 4
14 18 17 14 4 23 11 20 16 -4 6 1 13 10 17 10 3 21 0 26 -8 5 -8 9 206 9 499
l0 512 -2174 0 c-1730 0 -2175 -3 -2179 -12 -4 -10 -6 -10 -6 0 -1 18 -19 15
-24 -5 -4 -17 -5 -17 -6 0 -1 16 -85 17 -1606 17 l-1605 0 0 -1907z m3355
1877 c-3 -4 0 -11 5 -13 6 -3 5 -4 -1 -3 -7 1 -13 10 -15 19 -1 9 2 15 7 11 5
-3 7 -9 4 -14z m492 -2 c-3 -8 -6 -5 -6 6 -1 11 2 17 5 13 3 -3 4 -12 1 -19z
m-423 -44 c10 -25 6 -41 -5 -22 -5 10 -16 15 -24 12 -9 -4 -15 0 -15 10 0 21
36 21 44 0z m54 -29 c-3 -3 -9 2 -12 12 -6 14 -5 15 5 6 7 -7 10 -15 7 -18z
m32 -1 c0 -14 -4 -23 -9 -20 -5 3 -7 15 -4 26 7 28 13 25 13 -6z m2700 -1 c0
-8 9 -7 30 5 29 16 32 16 44 0 14 -18 32 -25 21 -9 -7 12 18 17 72 12 43 -3
44 -4 43 -35 -1 -17 -2 -36 -1 -42 1 -15 60 -24 68 -11 3 5 9 4 13 -3 5 -8 18
-10 33 -6 20 5 26 13 29 39 l3 32 125 0 125 0 0 -35 0 -35 85 -2 c76 -1 88 1
110 22 38 35 84 55 132 56 56 2 85 -7 129 -42 35 -28 41 -29 144 -29 l106 0
-3 -212 c-3 -242 -8 -259 -86 -311 -37 -25 -54 -29 -135 -33 -50 -2 -113 -6
-139 -7 -27 -2 -48 -1 -48 2 0 3 -46 6 -103 5 -56 0 -107 1 -114 3 -14 6 -11
14 43 116 24 44 44 85 44 89 0 19 29 38 57 38 l28 0 -38 33 c-37 32 -39 32
-125 29 l-88 -3 -1 -83 c-1 -93 -19 -145 -62 -175 -31 -23 -143 -62 -134 -48
3 6 1 7 -5 3 -6 -4 -75 -7 -152 -7 -118 -1 -141 -3 -136 -15 3 -8 2 -14 -3
-14 -5 0 -11 10 -14 22 -4 12 -9 19 -12 16 -4 -3 -2 -15 4 -26 15 -28 22 -75
13 -90 -12 -18 -72 -4 -73 17 0 10 -4 7 -10 -8 -8 -21 -14 -23 -50 -17 -22 4
-38 3 -35 -2 7 -12 -45 -2 -61 11 -9 6 -13 6 -13 -2 0 -6 -17 -11 -40 -11 -45
0 -49 8 -20 35 26 24 25 35 -1 28 -16 -4 -20 -2 -17 8 6 19 59 24 69 7 7 -10
11 -10 21 0 17 17 38 15 61 -5 17 -15 19 -15 15 -2 -5 11 2 16 29 17 28 2 36
-1 40 -18 3 -11 9 -20 12 -20 13 0 55 50 48 56 -11 12 -147 11 -147 0 0 -8 -3
-8 -8 0 -8 12 -42 15 -42 3 0 -4 -10 -5 -22 -2 -13 3 -78 6 -145 7 -67 1 -125
5 -129 9 -4 4 1 24 11 45 10 20 19 40 19 44 1 3 4 10 9 14 12 12 8 46 -4 38
-8 -4 -9 1 -5 17 l7 24 -16 -25 c-12 -18 -14 -19 -9 -5 3 11 7 25 7 32 1 17
27 3 28 -16 0 -10 2 -11 6 -3 2 6 8 10 12 8 4 -3 15 13 25 34 20 45 4 42 187
40 104 -1 117 1 121 17 11 41 2 43 -153 43 l-149 0 -1 58 c-1 50 -2 54 -10 27
-5 -16 -8 -37 -6 -45 2 -9 -2 -21 -9 -27 -9 -10 -18 -8 -36 7 -24 18 -24 18
-36 -1 -8 -12 -23 -19 -42 -19 -17 0 -30 -4 -30 -10 0 -5 -4 -10 -10 -10 -5 0
-6 8 -3 17 5 12 2 15 -9 11 -9 -4 -20 -2 -25 3 -7 7 -12 2 -15 -15 -4 -18 -1
-26 9 -26 8 0 22 -8 31 -17 16 -16 16 -16 -5 -11 -13 4 -21 2 -20 -5 1 -6 -13
-11 -30 -12 -25 -2 -33 2 -33 15 0 18 -31 32 -47 21 -6 -3 -13 -13 -16 -21 -3
-10 -6 -7 -6 9 -1 20 -3 21 -16 11 -8 -7 -13 -16 -10 -20 3 -5 1 -11 -5 -15
-6 -4 -8 -10 -6 -14 3 -4 -8 -7 -24 -7 -17 0 -28 2 -25 4 3 3 0 11 -5 17 -7 9
-4 12 15 11 13 -1 23 4 22 9 -1 6 -6 8 -12 6 -18 -7 -58 -1 -72 10 -19 17 -9
23 16 9 12 -6 21 -8 21 -6 0 3 -14 13 -31 22 -24 12 -34 13 -43 4 -8 -8 -7 -9
7 -4 13 4 16 2 11 -9 -3 -9 -14 -13 -27 -10 -18 4 -19 3 -7 -6 9 -7 10 -11 3
-11 -6 0 -15 5 -19 11 -4 8 -9 7 -14 -2 -6 -9 -12 -10 -22 -2 -16 13 -48 9
-58 -7 -5 -8 -9 -7 -13 4 -5 13 -18 16 -61 14 -32 -2 -52 0 -49 6 4 5 -3 7
-15 4 -15 -4 -19 -2 -15 10 5 12 1 14 -19 10 -19 -4 -25 -1 -21 9 6 14 -8 16
-56 7 -18 -4 -28 -11 -25 -18 3 -6 -1 -3 -9 7 -12 14 -27 17 -73 15 -45 -3
-54 -6 -39 -12 11 -5 29 -17 40 -26 22 -19 30 -21 128 -22 37 -1 67 -5 67 -10
0 -4 6 -8 14 -8 8 0 16 -4 18 -10 5 -14 98 -20 98 -6 0 6 5 4 10 -4 5 -8 10
-11 10 -7 0 5 14 -1 30 -13 17 -12 30 -16 30 -10 0 7 6 5 16 -4 21 -21 23 -20
17 7 -5 22 -5 22 10 2 10 -12 16 -15 17 -7 0 7 5 10 11 6 6 -3 15 -1 19 6 5 8
17 10 35 6 26 -7 27 -8 9 -21 -18 -13 -17 -14 5 -8 22 6 23 5 10 -9 -7 -9 -17
-14 -21 -11 -5 2 -8 -1 -8 -7 0 -6 -10 -21 -22 -33 -29 -28 -83 -25 -116 6
-13 12 -25 21 -28 20 -9 -5 -64 10 -64 17 0 11 -57 22 -117 24 -46 1 -52 -1
-47 -16 4 -13 0 -18 -15 -18 -33 0 -50 11 -44 27 4 11 2 14 -5 9 -8 -5 -12 1
-13 16 -1 23 -1 23 -9 -2 l-8 -25 -2 25 -2 25 -8 -25 c-8 -25 -8 -25 -10 5 -2
24 -3 26 -8 10 -8 -24 -52 -30 -52 -7 0 11 3 12 14 3 10 -8 16 -9 21 -1 4 6 3
9 -2 8 -4 -2 -26 8 -47 21 -22 14 -34 27 -28 29 18 6 14 37 -7 56 -15 14 -20
14 -29 3 -14 -17 -6 -27 22 -27 17 0 18 -2 6 -10 -8 -5 -28 -10 -44 -10 -21 0
-27 4 -22 16 3 8 2 13 -3 9 -5 -3 -44 0 -86 6 -58 8 -80 7 -91 -2 -8 -6 -14
-7 -14 -2 0 5 -16 14 -35 20 -30 10 -35 9 -35 -5 0 -13 -3 -12 -15 4 -13 16
-16 17 -25 4 -6 -10 -10 -11 -10 -3 0 7 -3 12 -7 12 -21 -3 -44 2 -39 9 2 4
-9 8 -25 8 -23 1 -27 -1 -19 -11 8 -9 4 -11 -15 -7 -14 2 -25 9 -25 14 0 6
-10 8 -23 6 -13 -2 -29 2 -37 10 -8 9 -15 11 -17 5 -5 -14 -93 16 -93 32 0 6
-7 12 -15 13 -8 1 -22 3 -30 4 -8 1 -15 8 -15 16 0 10 -7 13 -21 9 -16 -4 -19
-2 -15 10 5 13 4 14 -8 3 -19 -15 -97 -4 -90 13 2 7 -9 19 -24 28 -27 15 -30
15 -40 0 -10 -14 -11 -14 -12 2 -2 19 -2 69 -1 92 1 23 31 18 31 -5 0 -21 14
-27 24 -11 10 15 34 7 55 -18 13 -15 28 -22 40 -18 10 2 38 1 62 -3 26 -5 49
-4 59 3 10 6 25 7 36 2 30 -13 74 -17 74 -7 0 6 7 12 15 16 8 3 14 2 14 -2 -1
-4 0 -10 1 -14 1 -5 3 -14 4 -20 2 -17 67 -12 78 5 6 9 8 9 8 0 0 -20 47 -16
54 4 4 10 10 13 14 8 4 -6 22 -15 40 -22 26 -9 32 -9 32 2 0 8 9 13 20 12 11
-1 20 -7 20 -15 0 -7 -5 -10 -12 -6 -7 4 -8 3 -4 -5 4 -6 12 -9 17 -6 5 4 9
-4 10 -17 0 -20 1 -20 8 -5 4 10 10 17 14 15 3 -2 16 5 27 15 23 19 50 23 50
6 0 -6 -9 -22 -20 -36 -11 -14 -20 -29 -20 -33 0 -10 116 -43 128 -36 6 3 12
0 15 -6 3 -10 13 -8 41 6 24 13 35 25 31 34 -4 12 -3 12 9 3 10 -8 16 -9 21
-2 6 11 12 7 50 -27 9 -8 15 -9 15 -3 0 6 5 11 10 11 6 0 10 -8 10 -17 0 -15
1 -15 13 2 10 12 16 14 21 7 11 -17 29 -15 22 3 -6 17 9 21 19 5 6 -10 45 -7
64 4 13 9 32 -19 25 -38 -4 -10 -1 -16 7 -16 7 0 21 -8 32 -17 19 -17 20 -17
8 4 -10 19 -9 22 4 17 8 -4 15 -1 15 5 0 6 5 11 11 11 6 0 8 -9 4 -22 -4 -16
-4 -19 3 -9 5 7 15 10 21 7 7 -5 10 -2 9 6 -2 7 3 12 10 10 7 -1 24 -3 37 -4
13 -1 21 -6 19 -10 -3 -4 16 -6 41 -4 33 2 52 10 70 30 13 14 29 26 35 26 5 0
10 5 10 10 0 6 -6 10 -14 10 -30 0 -25 19 11 54 34 33 42 36 78 30 22 -3 45
-13 52 -21 10 -13 13 -12 22 6 6 11 11 22 11 24 0 2 -39 5 -87 6 -49 1 -91 5
-95 9 -4 4 -5 17 -2 28 7 28 49 32 293 30 183 -2 211 3 211 32 0 5 65 9 155 8
114 -1 155 -4 155 -13z m-2665 -32 c3 -5 1 -12 -5 -16 -5 -3 -10 1 -10 9 0 18
6 21 15 7z m-726 -48 c6 17 8 16 29 -3 20 -19 22 -19 22 -3 1 16 2 16 16 -2 8
-11 22 -19 30 -17 8 2 14 -5 14 -17 0 -22 20 -40 20 -19 1 7 7 2 14 -12 l14
-25 5 30 c4 28 4 28 6 -6 1 -33 3 -36 32 -37 59 -2 107 -13 113 -28 7 -17 -10
-19 -18 -1 -3 6 -5 3 -3 -8 1 -13 11 -21 26 -23 19 -3 21 -6 10 -13 -11 -7
-11 -9 4 -9 9 0 17 -4 17 -10 0 -5 7 -10 15 -10 8 0 15 -7 15 -15 0 -8 0 -17
0 -20 0 -3 -3 -4 -6 -2 -3 1 -10 -6 -15 -15 -11 -19 -44 -24 -54 -8 -3 6 -1
10 5 10 8 0 8 6 0 20 -6 11 -17 20 -25 20 -8 0 -12 6 -9 13 3 8 -3 13 -16 13
-11 0 -20 -6 -20 -13 0 -7 -4 -13 -9 -13 -5 0 -12 -10 -14 -22 -4 -20 -4 -19
-6 5 0 15 4 27 9 27 6 0 10 5 10 10 0 22 -20 8 -26 -17 -4 -16 -18 -38 -32
-50 -30 -28 -33 -28 -26 -5 5 16 5 16 -9 -1 -13 -15 -16 -15 -27 -2 -7 8 -16
12 -21 9 -5 -3 -12 2 -15 10 -3 9 -10 14 -14 11 -5 -3 -13 3 -19 12 -10 17
-10 17 -12 -2 -1 -17 -2 -16 -9 5 -4 14 -8 19 -9 13 -1 -7 -13 -14 -28 -14
l-28 -1 30 -8 c23 -7 14 -8 -35 -7 l-65 2 -3 -32 c-4 -42 -17 -43 -20 -2 -1
18 -12 45 -23 61 -13 17 -19 37 -16 50 3 12 1 30 -4 41 -9 15 -8 18 3 15 7 -3
18 4 25 16 12 21 12 21 13 -3 0 -18 3 -21 13 -12 8 6 17 8 20 4 4 -3 7 1 7 10
0 10 -4 17 -9 17 -21 0 -18 40 5 64 18 17 21 26 12 29 -11 4 -11 6 0 6 7 1 16
-7 20 -16 8 -21 32 -28 32 -10 0 8 4 7 10 -3 8 -13 10 -13 10 2 0 9 -12 21
-27 27 l-28 11 28 -5 c17 -4 28 -1 28 7 1 7 4 0 7 -17 3 -23 6 -26 11 -12z
m1945 -75 c16 -31 13 -55 -3 -29 -6 9 -10 6 -15 -11 -5 -19 -8 -20 -16 -8 -6
9 -6 18 0 24 6 6 10 20 10 33 0 31 6 29 24 -9z m-1457 -30 c-3 -8 -6 -5 -6 6
-1 11 2 17 5 13 3 -3 4 -12 1 -19z m-881 -29 c3 -6 2 -15 -4 -21 -6 -6 -11 -2
-15 11 -5 22 7 29 19 10z m1421 -11 c-3 -8 -6 -5 -6 6 -1 11 2 17 5 13 3 -3 4
-12 1 -19z m-1387 -2 c0 -3 -4 -8 -10 -11 -5 -3 -10 -1 -10 4 0 6 5 11 10 11
6 0 10 -2 10 -4z m172 -36 c-2 -18 0 -30 7 -30 6 0 10 -10 10 -22 -1 -20 -2
-20 -6 -4 -4 15 -7 16 -14 5 -7 -11 -9 -10 -9 5 0 12 -5 16 -15 12 -13 -5 -14
-2 -3 17 7 12 14 27 14 32 1 6 2 14 3 18 0 5 5 6 9 3 5 -3 7 -19 4 -36z m937
31 c11 -7 9 -10 -8 -16 -24 -7 -44 2 -36 16 8 11 26 11 44 0z m-157 -36 c3 0
10 -4 15 -9 5 -5 2 -6 -6 -1 -10 5 -12 4 -7 -4 10 -16 26 -4 19 14 -3 8 0 15
6 15 6 0 11 -10 12 -22 1 -22 1 -22 9 2 l8 25 2 -25 2 -25 9 25 8 25 -2 -24
c-1 -17 -9 -25 -26 -28 -14 -2 -30 -8 -38 -14 -10 -9 -13 -6 -13 12 -1 24 -1
24 -17 4 -12 -16 -14 -16 -10 -3 3 10 2 20 -4 23 -5 4 -7 11 -3 16 3 5 11 6
17 2 7 -4 15 -8 19 -8z m115 1 c0 -8 -6 -12 -14 -9 -7 3 -13 9 -13 14 0 5 6 9
13 9 8 0 14 -6 14 -14z m45 7 c-6 -2 -9 -10 -6 -15 5 -7 2 -8 -6 -3 -10 6 -12
4 -7 -9 4 -10 3 -15 -3 -11 -23 14 -6 43 25 43 6 0 4 -2 -3 -5z m-202 -50 c0
-14 -6 -23 -15 -23 -14 0 -19 12 -16 33 0 4 -3 7 -9 7 -5 0 -10 -5 -10 -12 0
-6 -3 -9 -6 -5 -12 11 7 27 31 25 19 -2 25 -8 25 -25z m502 5 c11 -13 16 -16
12 -8 -4 8 13 -6 38 -32 51 -53 77 -66 132 -66 21 0 41 -4 45 -9 3 -5 16 -10
29 -11 12 -1 28 -2 35 -3 6 -1 21 2 31 7 13 5 17 4 12 -4 -3 -6 -2 -13 3 -17
5 -3 14 2 19 11 7 13 11 14 17 3 5 -7 4 -14 -2 -16 -8 -3 -7 -13 3 -31 18 -34
18 -52 0 -52 -8 0 -17 -8 -21 -17 -7 -17 -8 -16 -15 2 -8 18 -9 18 -9 2 -1
-10 -5 -15 -11 -12 -5 3 -10 0 -10 -8 0 -10 -7 -13 -19 -10 -13 3 -17 10 -14
20 5 13 3 13 -15 4 -12 -7 -22 -16 -22 -21 0 -6 -9 -10 -20 -10 -15 0 -19 6
-17 30 2 24 6 29 22 24 13 -3 10 1 -7 11 -15 8 -26 21 -24 28 1 6 1 9 -1 5 -7
-12 -23 -10 -23 2 0 6 -9 20 -20 32 -11 12 -20 18 -20 14 0 -5 -7 -3 -15 4 -8
6 -19 9 -25 5 -6 -4 -16 -2 -23 3 -19 14 -67 21 -74 9 -12 -19 -12 -61 0 -76
9 -12 9 -13 0 -7 -7 4 -13 3 -13 -3 0 -5 5 -13 10 -16 6 -4 7 -11 4 -17 -4 -6
-6 -36 -6 -67 1 -31 2 -108 3 -171 0 -63 5 -122 10 -132 6 -12 6 -18 0 -18 -6
0 -8 -7 -4 -16 5 -13 8 -13 15 -2 7 9 8 8 4 -5 -15 -46 -17 -65 -7 -71 7 -5 6
-14 -4 -30 -18 -26 -9 -41 14 -23 12 10 12 7 -2 -12 -12 -18 -14 -28 -5 -38 7
-9 7 -13 -1 -13 -6 0 -11 -4 -11 -10 0 -5 7 -7 15 -4 9 4 15 0 15 -10 0 -10
-5 -13 -17 -9 -11 4 -14 3 -9 -5 4 -7 3 -12 -2 -12 -11 0 -11 -4 -20 -110 l-8
-85 -5 65 c-3 36 -4 272 -3 525 4 553 3 505 10 505 3 0 15 -10 26 -22z m-322
-40 c0 -16 -3 -19 -11 -11 -6 6 -8 16 -5 22 11 17 16 13 16 -11z m1717 -50
c-3 -8 -6 -5 -6 6 -1 11 2 17 5 13 3 -3 4 -12 1 -19z m-967 -8 c0 -17 -12 -40
-21 -40 -5 0 -9 13 -9 30 0 22 4 28 15 24 8 -4 15 -10 15 -14z m526 -16 c1 -9
0 -13 -4 -10 -3 4 -7 14 -8 22 -1 9 0 13 4 10 3 -4 7 -14 8 -22z m-506 -14 c0
-5 -2 -10 -4 -10 -3 0 -8 5 -11 10 -3 6 -1 10 4 10 6 0 11 -4 11 -10z m78 -19
c8 -9 11 -11 8 -5 -3 6 1 11 9 11 8 0 12 -4 9 -9 -3 -4 -1 -8 4 -8 6 0 12 7
16 15 3 8 13 15 21 15 9 0 13 -5 10 -10 -4 -6 -12 -7 -18 -4 -7 4 -9 3 -4 -1
4 -5 29 -11 55 -13 26 -2 53 -8 60 -14 9 -8 17 -6 30 4 25 22 52 18 65 -9 10
-23 27 -31 27 -13 0 6 -4 10 -9 10 -17 0 -20 28 -5 47 14 17 15 17 13 -2 -2
-35 1 -46 11 -40 5 3 7 0 4 -8 -8 -21 11 -30 26 -12 10 12 15 13 32 1 13 -10
30 -11 56 -5 30 6 38 5 50 -12 9 -14 20 -17 38 -13 14 4 24 2 24 -4 0 -6 8
-13 18 -15 9 -3 -18 -5 -60 -6 -56 -1 -85 4 -107 17 -17 9 -31 20 -31 24 0 4
-11 1 -24 -6 -34 -17 -134 -6 -121 14 5 8 -101 24 -120 19 -22 -6 -135 14
-135 23 0 6 -7 8 -15 4 -17 -6 -18 -4 -9 18 7 19 52 11 72 -13z m-91 -23 c-3
-8 -6 -5 -6 6 -1 11 2 17 5 13 3 -3 4 -12 1 -19z m443 14 c0 -5 -7 -9 -15 -9
-8 0 -12 4 -9 9 3 4 9 8 15 8 5 0 9 -4 9 -8z m750 -7 c0 -8 -4 -15 -10 -15 -5
0 -7 7 -4 15 4 8 8 15 10 15 2 0 4 -7 4 -15z m52 -8 c5 -9 17 -17 26 -17 15 0
15 -2 2 -10 -12 -8 -11 -10 7 -10 12 0 24 -4 27 -9 6 -10 -17 -33 -30 -30 -24
4 -34 -3 -34 -25 0 -13 6 -26 13 -29 6 -2 -6 -9 -27 -15 -32 -9 -46 -8 -73 4
-18 9 -33 21 -33 26 0 5 -4 7 -9 3 -18 -11 -19 11 -2 34 12 16 31 25 62 28 56
7 75 30 45 54 -19 16 -19 17 -2 15 10 -1 22 -10 28 -19z m241 8 c-3 -9 -8 -14
-10 -11 -3 3 -2 9 2 15 9 16 15 13 8 -4z m-1504 -52 c1 -7 -3 -13 -9 -13 -5 0
-10 17 -9 38 1 33 2 34 9 12 4 -14 8 -31 9 -37z m1389 32 c-10 -22 -28 -35
-28 -20 0 5 33 45 37 45 1 0 -3 -11 -9 -25z m-68 5 c0 -5 -2 -10 -4 -10 -3 0
-8 5 -11 10 -3 6 -1 10 4 10 6 0 11 -4 11 -10z m-2138 -24 c15 -21 16 -25 2
-30 -8 -3 -12 -2 -9 4 3 6 -4 10 -15 10 -15 0 -20 5 -17 14 3 8 1 17 -6 20 -7
2 -3 5 8 5 11 0 28 -10 37 -23z m2168 20 c0 -3 -4 -8 -10 -11 -5 -3 -10 -1
-10 4 0 6 5 11 10 11 6 0 10 -2 10 -4z m153 -29 c3 -8 -1 -14 -8 -14 -7 0 -11
6 -8 14 3 7 6 13 8 13 2 0 5 -6 8 -13z m-1463 -23 c0 -8 -5 -14 -11 -14 -5 0
-7 5 -4 10 3 6 1 10 -4 10 -6 0 -11 4 -11 10 0 5 7 7 15 4 8 -4 15 -12 15 -20z
m770 14 c0 -6 13 -8 29 -6 20 3 32 -1 40 -13 13 -23 -1 -33 -32 -23 -32 11
-40 11 -54 1 -7 -5 -13 -7 -13 -3 0 3 0 9 0 14 0 4 4 7 9 7 5 0 13 3 17 8 4 4
-7 7 -24 7 -43 0 -49 16 -6 17 19 1 34 -4 34 -9z m650 -22 c0 -2 -12 -3 -26
-3 -28 0 -59 -22 -33 -24 7 -1 23 -1 35 0 24 2 51 -44 32 -55 -7 -4 -8 -3 -4
4 5 8 -4 12 -28 12 -28 0 -34 3 -29 16 5 13 2 15 -15 10 -11 -4 -23 -2 -27 3
-3 6 0 8 8 5 8 -3 14 2 14 11 0 8 -5 15 -11 16 -6 0 2 7 19 14 20 9 36 10 47
4 10 -5 18 -11 18 -13z m-1680 4 c0 -5 -7 -10 -15 -10 -8 0 -15 5 -15 10 0 6
7 10 15 10 8 0 15 -4 15 -10z m1567 -5 c0 -8 -4 -15 -9 -15 -10 0 -11 14 -1
23 9 10 10 9 10 -8z m-287 -15 c-8 -5 -19 -10 -25 -10 -5 0 -3 5 5 10 8 5 20
10 25 10 6 0 3 -5 -5 -10z m106 -142 c-5 -31 -5 -32 9 -13 35 48 53 56 84 36
19 -12 5 -30 -19 -24 -13 3 -20 0 -20 -8 0 -9 11 -14 32 -13 29 1 33 5 31 28
-3 37 14 32 34 -11 21 -43 43 -55 43 -23 0 16 -4 20 -15 16 -21 -8 -19 14 3
30 31 24 41 16 44 -33 3 -41 6 -48 30 -54 40 -10 172 -72 180 -84 4 -5 8 -6 8
-1 0 6 7 1 15 -10 8 -10 15 -14 14 -9 -3 24 2 35 16 35 8 0 15 -5 15 -12 0 -9
3 -9 12 0 13 13 48 16 48 4 0 -4 -5 -13 -11 -19 -8 -8 -8 -17 0 -31 16 -29 14
-35 -9 -29 -11 3 -20 1 -20 -4 0 -5 5 -9 10 -9 12 0 69 -62 85 -94 7 -11 22
-38 34 -60 12 -21 20 -45 16 -54 -3 -8 -1 -20 3 -26 5 -6 12 -21 15 -34 4 -18
0 -26 -19 -34 -18 -9 -24 -18 -23 -42 1 -24 3 -26 6 -8 4 22 23 31 23 11 0 -7
7 -17 17 -24 19 -14 9 -37 -15 -34 -25 4 -62 -11 -62 -24 0 -7 -12 -17 -26
-24 -22 -10 -25 -10 -20 3 8 22 -30 18 -54 -6 -11 -11 -21 -15 -21 -10 -1 6
-2 16 -3 22 -1 9 -19 13 -52 13 -38 0 -50 3 -47 12 3 7 4 13 2 13 -48 5 -86
14 -93 21 -6 5 -18 9 -27 9 -9 0 -22 7 -30 16 -9 11 -28 15 -63 14 -28 -1 -55
-1 -61 0 -5 1 -57 3 -115 5 -58 2 -141 4 -185 6 -44 1 -114 1 -155 0 -41 -1
-86 1 -100 4 -14 4 -37 6 -52 6 -17 -1 -32 6 -40 18 -9 15 -17 17 -34 11 -12
-5 -31 -6 -42 -3 -23 6 -39 36 -22 41 7 3 4 10 -7 18 -10 7 -13 14 -6 14 6 0
14 14 18 30 4 17 11 30 16 30 5 0 8 3 7 8 -5 14 96 164 105 156 4 -4 7 -2 7 5
0 31 168 139 264 170 49 16 124 29 177 31 4 0 12 14 19 30 17 40 34 39 26 -2z
m312 20 c9 -9 15 -9 24 0 18 18 45 14 61 -8 l14 -21 6 21 c8 29 62 25 62 -5 0
-14 7 -20 24 -20 13 0 26 -6 29 -14 3 -10 -2 -13 -21 -9 -16 3 -28 0 -31 -9
-8 -19 -75 -13 -68 7 4 11 0 10 -15 -3 -28 -25 -69 -19 -65 8 3 18 2 18 -13
-3 -25 -35 -69 -27 -72 13 -2 17 -1 36 2 43 6 15 47 16 63 0z m686 -3 c4 -11
-1 -15 -19 -15 -29 0 -42 -17 -26 -33 9 -9 11 -8 6 6 -6 13 -2 17 18 17 19 0
27 -6 30 -22 3 -18 5 -16 6 8 0 16 6 35 13 42 16 16 54 15 70 -2 11 -12 15
-12 30 1 21 19 70 10 66 -12 -2 -7 2 -14 7 -14 6 -1 11 4 11 9 1 6 2 15 3 20
2 16 31 11 31 -5 0 -20 10 -19 25 2 18 24 35 7 35 -38 0 -28 -4 -39 -15 -39
-9 0 -18 7 -21 15 -4 8 -10 15 -15 15 -5 0 -9 -7 -9 -15 0 -17 -26 -20 -35 -5
-5 8 -11 7 -20 0 -8 -6 -26 -10 -42 -8 -23 2 -28 7 -26 28 l3 25 -14 -25 c-8
-14 -12 -28 -10 -32 2 -4 -6 -5 -18 -3 -75 12 -95 13 -107 5 -22 -13 -59 9
-70 42 -6 16 -6 26 -2 23 5 -3 11 2 15 10 7 20 72 20 80 0z m387 5 c37 -20 18
-80 -26 -80 -43 0 -63 58 -27 79 22 13 29 13 53 1z m150 -36 l17 -40 -49 0
c-55 0 -58 6 -29 54 25 41 39 38 61 -14z m103 27 c23 -26 13 -59 -21 -67 -33
-9 -57 6 -61 36 -7 45 51 66 82 31z m54 7 c8 -8 15 -8 26 1 22 18 41 3 23 -17
-8 -10 -17 -26 -19 -37 -2 -11 -10 -20 -18 -20 -8 0 -16 9 -18 20 -2 11 -10
27 -18 36 -21 24 1 40 24 17z m137 -18 c15 -28 20 -60 10 -60 -3 0 -15 6 -26
13 -17 10 -23 10 -26 0 -5 -15 -33 -18 -33 -3 0 21 34 80 47 80 7 0 19 -13 28
-30z m73 8 l5 -22 9 23 c14 38 43 23 43 -23 0 -39 -24 -65 -26 -29 -1 16 -2
16 -6 1 -2 -10 -11 -18 -19 -18 -8 0 -15 8 -15 18 -1 16 -2 16 -6 0 -2 -10
-11 -18 -19 -18 -18 0 -20 76 -1 83 23 10 29 7 35 -15z m142 -13 c13 -41 25
-39 34 6 9 46 19 28 11 -19 l-6 -40 -59 1 c-56 2 -58 2 -49 25 28 72 51 81 69
27z m-3470 15 c0 -5 -4 -10 -10 -10 -5 0 -10 5 -10 10 0 6 5 10 10 10 6 0 10
-4 10 -10z m-990 -66 c0 -8 5 -14 10 -14 6 0 10 -6 10 -13 0 -16 -60 -53 -78
-49 -8 2 -23 -5 -33 -14 -15 -13 -22 -15 -31 -6 -7 7 -16 12 -22 12 -5 0 -6
-3 -2 -7 3 -4 -10 -15 -31 -25 -26 -13 -39 -15 -44 -7 -4 6 -12 8 -19 4 -7 -4
-16 -1 -22 6 -7 11 -11 11 -15 2 -2 -7 -11 -13 -19 -13 -9 0 -13 4 -9 9 3 6
-7 8 -22 6 -16 -2 -31 -4 -35 -4 -5 -1 -9 -9 -9 -18 -1 -16 -2 -16 -6 -2 -2
11 -11 15 -22 12 -10 -3 -33 3 -50 11 -17 9 -34 16 -37 15 -4 0 -10 5 -14 11
-4 7 -19 13 -34 13 -14 0 -26 4 -26 9 0 5 4 7 9 4 5 -3 11 0 14 8 4 10 17 13
41 9 20 -2 36 -1 36 4 0 4 35 7 77 6 43 -1 82 2 88 5 17 10 45 9 45 -2 0 -6
12 2 26 18 20 23 28 26 34 16 5 -8 7 -17 5 -20 -1 -3 3 -10 10 -17 10 -10 15
-9 19 4 4 9 9 13 13 10 3 -4 12 1 19 11 12 16 13 16 14 0 0 -27 18 -30 40 -8
l21 21 19 -23 c16 -19 19 -20 20 -6 0 9 -5 20 -10 23 -6 4 -8 11 -4 16 7 13
24 1 24 -17z m70 16 c0 -5 -2 -10 -4 -10 -3 0 -8 5 -11 10 -3 6 -1 10 4 10 6
0 11 -4 11 -10z m-738 -92 c-7 -7 -12 -8 -12 -2 0 14 12 26 19 19 2 -3 -1 -11
-7 -17z m95 6 c-3 -3 -12 -4 -19 -1 -8 3 -5 6 6 6 11 1 17 -2 13 -5z m572 -47
c1 16 41 4 41 -13 0 -8 5 -14 11 -14 5 0 7 4 4 10 -3 5 -1 18 4 27 7 12 10 13
11 4 0 -7 6 -11 15 -7 21 8 19 -11 -2 -23 -15 -9 -16 -12 -4 -20 7 -5 10 -14
7 -20 -4 -6 0 -11 10 -11 11 0 15 6 11 20 -6 25 -2 25 29 1 20 -16 21 -20 8
-25 -27 -10 -57 -7 -75 10 -21 19 -39 11 -39 -17 0 -19 0 -19 -19 0 -11 11
-21 27 -24 38 -4 15 -5 14 -6 -4 -1 -28 -21 -31 -21 -3 0 25 -20 27 -21 3 -1
-15 -2 -15 -6 -2 -2 8 3 28 12 45 10 19 15 23 15 12 0 -30 20 -20 21 10 l1 27
8 -30 c4 -16 8 -25 9 -18z m506 17 c-13 -14 -28 -23 -33 -20 -6 3 -13 -4 -17
-17 -6 -19 -8 -19 -12 -4 -2 9 -8 15 -13 12 -4 -3 -10 4 -13 15 -3 11 0 23 5
27 7 3 8 1 4 -5 -4 -7 1 -10 14 -9 11 1 20 4 20 8 0 4 12 10 28 12 15 2 30 5
34 6 4 0 -4 -11 -17 -25z m2640 5 c8 14 45 15 45 2 0 -6 -4 -12 -9 -15 -12 -8
-7 -41 5 -40 5 1 15 15 23 33 20 42 43 39 64 -7 9 -21 17 -41 17 -43 0 -2 -28
-5 -62 -6 -45 -1 -68 3 -80 14 -16 15 -18 15 -18 0 0 -10 -8 -17 -20 -17 -16
0 -20 7 -20 34 0 19 3 42 6 51 6 15 8 15 24 0 12 -11 20 -13 25 -6z m476 12
c20 -1 29 -8 34 -28 l7 -28 10 28 c9 26 38 39 38 17 0 -25 -30 -80 -44 -80 -9
0 -22 14 -31 30 -13 26 -47 43 -44 23 1 -5 1 -18 0 -30 -1 -30 -41 -33 -41 -3
0 11 -6 20 -12 20 -10 0 -10 2 0 9 11 7 11 9 -1 14 -17 6 -40 -15 -43 -40 -3
-21 -11 -26 -29 -19 -9 3 -14 10 -10 16 8 12 -13 52 -24 45 -5 -2 -11 -18 -14
-35 -5 -24 -11 -30 -33 -30 -15 0 -33 8 -41 18 -9 12 -13 13 -11 3 2 -8 -5
-17 -14 -19 -15 -3 -18 4 -18 42 0 48 21 65 35 29 6 -17 7 -17 20 1 18 24 35
12 36 -27 l1 -32 10 38 c8 29 15 37 33 37 13 0 27 -5 30 -10 5 -7 11 -8 18 -1
12 9 69 18 97 15 8 -2 27 -3 41 -3z m-3391 -29 c0 -13 -3 -12 -15 4 -13 17
-14 17 -15 2 0 -10 -7 -18 -15 -18 -20 0 -19 10 2 25 21 15 43 9 43 -13z
m2792 -4 c2 -18 8 -33 13 -33 6 0 11 15 13 33 2 20 9 32 18 32 12 0 14 -10 12
-42 -3 -42 -4 -43 -38 -43 -28 0 -37 5 -47 27 -15 29 -8 58 12 58 8 0 15 -14
17 -32z m818 22 c0 -6 10 -5 25 2 51 23 101 -32 63 -70 -27 -27 -88 -10 -88
24 0 15 -6 24 -15 24 -8 0 -15 -5 -15 -11 0 -5 6 -7 13 -3 9 5 9 4 0 -6 -6 -7
-9 -19 -6 -26 3 -9 -2 -14 -16 -14 -19 0 -26 10 -22 33 0 4 -5 7 -11 7 -9 0
-8 4 2 10 13 8 13 10 -1 10 -9 0 -22 -13 -29 -30 -13 -32 -35 -42 -26 -12 3 9
8 29 12 45 6 25 10 27 60 27 30 0 54 -4 54 -10z m144 -5 c3 -8 10 -15 16 -15
5 0 10 7 10 15 0 8 6 15 14 15 9 0 15 -15 18 -45 3 -41 1 -45 -19 -45 -16 0
-21 4 -17 15 4 9 0 15 -10 15 -9 0 -16 -7 -16 -15 0 -8 -7 -15 -15 -15 -11 0
-15 12 -15 45 0 32 4 45 14 45 8 0 16 -7 20 -15z m-3628 -20 c-23 -17 -36 -19
-36 -6 0 11 18 19 40 20 11 0 10 -3 -4 -14z m-444 -17 c-6 -6 -15 -8 -19 -4
-4 4 -1 11 7 16 19 12 27 3 12 -12z m502 -20 c-3 -4 -18 -2 -34 4 -23 7 -34 7
-45 -2 -10 -9 -15 -9 -15 -1 0 6 12 13 28 17 15 3 31 7 37 8 12 3 34 -17 29
-26z m-226 -18 c0 -17 -4 -28 -9 -25 -11 8 -12 55 -1 55 5 0 9 -14 10 -30z
m27 10 c3 -5 1 -10 -4 -10 -6 0 -11 5 -11 10 0 6 2 10 4 10 3 0 8 -4 11 -10z
m-160 -20 c-3 -5 -1 -10 4 -10 6 0 11 -5 11 -11 0 -5 -4 -8 -9 -5 -5 4 -12 0
-14 -6 -3 -7 -6 -1 -6 15 -1 15 4 27 10 27 5 0 7 -4 4 -10z m190 1 c-3 -5 -1
-12 5 -16 6 -4 8 -11 4 -16 -3 -5 -10 -7 -15 -4 -13 8 -11 45 2 45 5 0 8 -4 4
-9z m709 1 c3 -5 -1 -9 -9 -9 -8 0 -12 4 -9 9 3 4 7 8 9 8 2 0 6 -4 9 -8z
m-734 -12 c0 -5 -2 -10 -4 -10 -3 0 -8 5 -11 10 -3 6 -1 10 4 10 6 0 11 -4 11
-10z m3625 -10 c-3 -5 -1 -11 5 -15 5 -3 10 2 10 12 0 14 2 15 9 4 5 -7 14
-10 20 -7 6 4 11 0 11 -8 0 -9 5 -16 11 -16 5 0 7 5 4 10 -3 6 1 10 10 10 9 0
13 5 10 10 -10 16 31 11 45 -5 13 -16 35 -21 25 -6 -3 5 -1 12 5 16 6 3 10 -4
10 -17 0 -22 -3 -23 -63 -22 -125 3 -124 3 -130 23 -3 11 -2 22 0 25 9 8 24
-4 18 -14z m-31 -22 c-9 -14 -23 2 -17 18 4 12 8 13 14 3 4 -7 5 -17 3 -21z
m-3437 0 c-3 -8 -6 -5 -6 6 -1 11 2 17 5 13 3 -3 4 -12 1 -19z m80 11 c-11 -7
-23 -7 -28 -2 -5 5 3 9 19 11 24 1 25 0 9 -9z m-200 -43 c-1 -6 5 -11 13 -11
8 -1 25 -6 36 -13 12 -6 24 -8 28 -5 3 3 6 -1 6 -9 0 -18 -37 -31 -46 -17 -3
6 -15 7 -27 3 -32 -10 -119 -12 -144 -3 -18 7 -23 5 -24 -9 -1 -11 -4 -8 -9 8
-4 14 -8 20 -9 13 -1 -8 -10 -9 -31 -3 -17 5 -41 7 -54 4 -14 -2 -28 0 -31 6
-7 11 -4 11 65 14 25 0 48 6 52 11 5 6 8 3 8 -6 0 -13 11 -16 55 -16 30 0 55
4 55 8 0 5 7 9 15 9 18 0 20 17 3 23 -7 2 -1 4 14 4 15 0 26 -5 25 -11z m3830
-10 c0 -8 -6 -12 -15 -9 -11 5 -11 7 0 14 7 5 13 9 14 9 0 0 1 -6 1 -14z
m-4270 -19 c1 -11 1 -18 0 -16 -2 2 -8 11 -15 20 -9 12 -9 16 1 16 7 0 14 -9
14 -20z m113 -12 c0 -5 -5 -3 -10 5 -5 8 -10 20 -10 25 0 6 5 3 10 -5 5 -8 10
-19 10 -25z m479 24 c13 7 25 3 47 -15 l29 -24 -28 12 c-20 8 -33 8 -50 1 -55
-27 -65 -25 -51 12 5 13 8 14 15 3 7 -10 9 -8 10 7 0 11 3 14 6 8 3 -9 10 -10
22 -4z m3578 4 c-4 -3 -2 -11 3 -18 7 -8 5 -12 -4 -12 -8 0 -12 7 -11 16 5 22
4 21 12 21 3 0 3 -3 0 -7z m-4397 -74 c0 -14 -17 -10 -23 5 -4 10 -1 13 9 9 7
-3 14 -9 14 -14z m1280 1 c0 -5 -2 -10 -4 -10 -3 0 -8 5 -11 10 -3 6 -1 10 4
10 6 0 11 -4 11 -10z m75 -69 c-6 -5 -25 10 -25 20 0 5 6 4 14 -3 8 -7 12 -15
11 -17z m-35 4 c0 -8 -4 -15 -10 -15 -5 0 -10 7 -10 15 0 8 5 15 10 15 6 0 10
-7 10 -15z m2473 -90 c-3 -9 -8 -14 -10 -11 -3 3 -2 9 2 15 9 16 15 13 8 -4z
m212 5 c-3 -5 -12 -10 -18 -10 -7 0 -6 4 3 10 19 12 23 12 15 0z m-6618 -22
c-3 -8 -6 -5 -6 6 -1 11 2 17 5 13 3 -3 4 -12 1 -19z m6653 14 c0 -13 -12 -22
-22 -16 -10 6 -1 24 13 24 5 0 9 -4 9 -8z m56 -21 c-9 -14 -46 -14 -46 -1 0 6
9 10 21 10 13 0 18 4 13 13 -5 9 -4 9 6 0 7 -6 9 -16 6 -22z m654 7 c0 -12 -3
-18 -7 -15 -3 4 -12 2 -20 -4 -19 -16 -16 -2 5 20 22 25 22 25 22 -1z m-1200
-13 c0 -3 -9 -5 -20 -5 -11 0 -20 7 -20 15 0 13 4 14 20 5 11 -6 20 -13 20
-15z m300 3 c0 -6 12 -8 30 -4 24 4 30 2 30 -12 0 -10 5 -23 12 -30 9 -9 9
-12 -1 -12 -7 0 -9 -4 -6 -10 9 -14 -31 -12 -47 3 -18 17 -58 18 -58 1 0 -19
-29 -17 -73 5 -20 10 -35 15 -32 11 2 -4 -13 -7 -35 -6 -22 0 -40 5 -40 9 0 5
-11 7 -26 4 -21 -4 -25 -1 -22 16 4 26 22 32 40 13 11 -10 18 -12 26 -4 16 16
82 20 78 5 -1 -7 -1 -9 1 -4 7 12 33 8 33 -5 0 -9 4 -8 10 2 8 12 10 10 11
-10 1 -21 2 -22 6 -5 7 29 33 54 49 48 8 -3 14 -10 14 -15z m337 -8 c-3 -12 0
-20 8 -20 7 0 15 -6 18 -13 3 -8 -7 -13 -28 -14 l-32 -2 16 34 c18 39 26 45
18 15z m63 -5 c10 3 22 0 26 -7 4 -6 2 -14 -4 -16 -6 -2 -9 -11 -6 -20 5 -15
4 -15 -6 1 -6 9 -8 23 -5 30 4 6 0 4 -8 -5 -17 -21 -37 -6 -37 27 1 19 1 19
11 2 7 -11 17 -16 29 -12z m450 5 c0 -5 -2 -10 -4 -10 -3 0 -8 5 -11 10 -3 6
-1 10 4 10 6 0 11 -4 11 -10z m245 -10 c3 -6 -1 -13 -10 -16 -19 -8 -30 0 -20
15 8 14 22 14 30 1z m-108 -6 c-3 -3 -12 -4 -19 -1 -8 3 -5 6 6 6 11 1 17 -2
13 -5z m-422 -14 c3 -5 15 -10 26 -10 10 0 19 -4 19 -10 0 -9 -7 -11 -50 -14
-8 -1 -20 -4 -27 -9 -16 -10 -43 2 -43 22 0 14 -2 14 -10 1 -5 -8 -10 -10 -10
-4 0 18 12 24 31 13 15 -7 19 -6 19 6 0 17 35 21 45 5z m-3198 -89 c0 -11 -5
-18 -9 -15 -4 3 -5 11 -1 19 7 21 12 19 10 -4z m2250 -14 c13 -13 14 -19 4
-31 -8 -9 -17 -13 -23 -10 -5 3 -20 -2 -33 -10 -14 -9 -25 -14 -25 -10 0 4 -8
0 -17 -7 -15 -12 -16 -12 -8 1 7 12 6 13 -6 4 -14 -10 -31 -10 -114 -4 -22 2
-50 -2 -62 -9 -13 -6 -23 -8 -23 -4 0 4 -5 1 -10 -7 -7 -11 -10 -11 -10 -2 0
7 -5 10 -11 6 -6 -3 -31 -6 -55 -6 -43 1 -51 -6 -45 -40 1 -10 -93 -10 -103
-1 -11 11 -246 9 -246 -2 0 -5 -5 -3 -10 5 -5 8 -10 11 -10 6 0 -5 -6 -3 -14
3 -10 9 -16 9 -21 1 -4 -6 -13 -9 -21 -6 -8 3 -14 -1 -14 -10 0 -8 -4 -13 -9
-9 -5 3 -12 1 -16 -5 -3 -5 -3 -10 2 -10 4 0 18 -3 31 -6 16 -5 22 -2 22 10 0
12 7 15 27 12 35 -7 43 -17 33 -41 -5 -11 -9 -14 -9 -7 -2 23 -19 12 -31 -20
-10 -25 -14 -29 -17 -15 -3 12 -10 16 -24 12 -12 -4 -21 -1 -25 8 -5 13 -9 13
-32 1 -14 -7 -29 -10 -32 -6 -3 4 -29 7 -59 8 -33 1 -56 6 -62 15 -5 8 -9 11
-9 6 0 -10 -80 43 -80 54 0 4 6 14 14 22 11 10 39 13 120 11 91 -3 106 -1 106
13 0 10 -6 14 -20 10 -11 -3 -20 -1 -20 4 0 5 -6 9 -13 9 -17 0 -49 39 -42 51
6 9 189 5 235 -6 14 -4 44 -7 68 -7 23 0 42 -3 42 -8 0 -4 29 -6 65 -4 35 2
67 -1 70 -6 4 -6 14 -10 23 -10 12 0 10 4 -7 13 -66 33 -2 50 134 34 113 -14
226 -9 261 11 26 14 113 7 131 -11z m-1040 -9 c-3 -8 -6 -5 -6 6 -1 11 2 17 5
13 3 -3 4 -12 1 -19z m-1206 -131 c-10 -9 -11 -8 -5 6 3 10 9 15 12 12 3 -3 0
-11 -7 -18z m1539 -10 c0 -19 -10 -27 -26 -20 -11 4 -12 9 -3 19 15 18 29 18
29 1z m-1534 -54 c-4 -40 -11 -33 -13 10 -1 26 1 36 6 27 5 -8 8 -25 7 -37z
m1044 1 c0 -8 4 -14 9 -14 5 0 8 -20 7 -45 -1 -44 -16 -59 -32 -33 -4 7 -3 8
4 4 7 -4 12 -3 12 3 0 5 -4 12 -10 16 -5 3 -9 26 -8 50 0 25 4 42 9 39 5 -3 9
-12 9 -20z m497 -30 c-3 -3 -12 -4 -19 -1 -8 3 -5 6 6 6 11 1 17 -2 13 -5z
m-332 -63 c3 -6 -3 -14 -13 -20 -14 -8 -18 -6 -19 10 -2 20 21 27 32 10z
m-288 -85 c0 -11 -5 -12 -17 -6 -10 5 -20 7 -23 4 -3 -3 -8 -1 -12 5 -4 7 5
11 23 11 18 0 29 -5 29 -14z m-217 -6 c0 -5 -6 -10 -14 -10 -8 0 -18 5 -21 10
-3 6 3 10 14 10 12 0 21 -4 21 -10z m135 -10 c3 -5 1 -10 -4 -10 -6 0 -11 5
-11 10 0 6 2 10 4 10 3 0 8 -4 11 -10z m552 -26 c-3 -3 -12 -4 -19 -1 -8 3 -5
6 6 6 11 1 17 -2 13 -5z m63 -4 c0 -5 -6 -10 -14 -10 -8 0 -18 5 -21 10 -3 6
3 10 14 10 12 0 21 -4 21 -10z m711 -355 c6 5 9 5 9 -1 0 -7 27 -9 72 -7 39 1
68 0 64 -4 -4 -4 -71 -9 -149 -10 -78 -1 -226 -5 -330 -7 -182 -5 -217 -3
-217 14 0 14 43 15 298 10 147 -3 247 -1 253 5z m-1032 -15 c2 0 2 -3 -1 -6
-3 -3 -29 -8 -57 -11 -44 -4 -51 -3 -51 12 0 15 7 16 53 11 28 -3 54 -6 56 -6z
m341 2 c0 -6 -15 -13 -34 -16 -34 -7 -69 1 -62 13 7 11 96 13 96 3z m897 2
c-3 -3 -12 -4 -19 -1 -8 3 -5 6 6 6 11 1 17 -2 13 -5z m-4438 -183 c15 -11 38
-43 50 -71 19 -44 25 -50 44 -44 12 3 34 20 49 38 36 40 38 15 3 -50 -14 -26
-25 -54 -25 -63 0 -18 -94 -188 -123 -221 -14 -17 -29 -20 -99 -20 -91 0 -147
14 -221 53 -38 20 -54 24 -73 17 -19 -8 -24 -6 -25 8 -1 9 -2 22 -3 28 0 6
-21 35 -46 63 -76 89 -76 111 -2 111 26 0 35 -5 44 -27 l11 -28 6 24 c4 14 13
27 20 29 10 3 11 -3 6 -27 -5 -24 -3 -30 7 -26 18 7 49 65 41 77 -3 6 -1 8 5
4 6 -3 12 2 15 11 2 10 4 -15 4 -56 l0 -75 39 -14 c75 -27 244 -13 244 20 0 6
-6 8 -14 5 -11 -5 -13 9 -9 77 5 80 5 84 -23 115 -16 18 -38 33 -48 35 -31 4
-30 24 1 29 49 7 92 -1 122 -22z m-1143 11 c-3 -5 1 -9 9 -9 8 0 12 4 9 9 -6
9 60 11 94 2 21 -6 21 -7 5 -19 -17 -13 -16 -14 8 -24 31 -11 59 -47 59 -73 0
-23 9 -23 25 -1 11 15 13 15 20 -7 6 -20 0 -31 -39 -67 -54 -49 -74 -58 -31
-13 20 21 24 30 13 30 -8 0 -23 -9 -33 -20 -53 -59 -145 26 -111 103 6 12 4
17 -6 17 -19 0 -38 -56 -38 -112 l0 -45 -38 0 c-34 0 -41 4 -64 41 -60 96 -43
135 83 185 31 12 42 13 35 3z m998 -67 c9 -13 11 -28 5 -47 -10 -35 3 -36 29
-3 20 26 32 32 32 16 0 -18 -63 -86 -78 -84 -9 1 -28 -5 -43 -13 -50 -26 -82
6 -72 72 7 49 42 83 84 79 16 -1 36 -10 43 -20z m-714 -21 c0 -13 -27 -1 -38
16 -12 20 -12 21 13 4 14 -9 25 -18 25 -20z m1210 -34 c0 -5 -2 -10 -4 -10 -3
0 -8 5 -11 10 -3 6 -1 10 4 10 6 0 11 -4 11 -10z m1215 0 c3 -5 1 -10 -4 -10
-6 0 -11 5 -11 10 0 6 2 10 4 10 3 0 8 -4 11 -10z m-2379 -15 c4 -8 3 -35 0
-60 -7 -42 -9 -45 -37 -45 -27 0 -30 3 -23 23 4 12 8 38 9 57 3 43 1 40 25 40
11 0 23 -7 26 -15z m1047 -13 c-1 -6 -5 -25 -8 -43 -8 -42 -38 -110 -65 -150
-19 -25 -85 -69 -106 -69 -4 0 17 25 45 55 34 35 51 61 47 71 -3 8 -1 12 4 9
5 -3 12 6 16 20 3 14 10 25 15 25 5 0 9 6 9 13 0 31 22 88 33 84 7 -3 11 -9
10 -15z m-401 -64 c-7 -7 -12 -8 -12 -2 0 14 12 26 19 19 2 -3 -1 -11 -7 -17z
m-619 -132 c-3 -41 -18 -52 -91 -70 -79 -20 -84 -20 -110 2 -11 9 -30 25 -42
35 -12 10 -20 23 -17 30 4 13 135 34 212 33 49 -1 50 -2 48 -30z m1577 -7 c0
-11 -27 -12 -34 -1 -2 4 4 9 15 9 10 1 19 -2 19 -8z m-1102 -64 c67 -39 86
-43 195 -47 46 -2 77 -7 77 -14 0 -9 -47 -58 -121 -126 -22 -21 -39 -23 -39
-6 0 6 -9 31 -21 55 -26 54 -45 55 -159 8 -78 -32 -130 -44 -130 -29 0 23 50
105 88 145 26 27 48 49 49 49 1 0 28 -16 61 -35z m-492 -25 c0 -10 -2 -17 -4
-15 -3 2 -11 -3 -19 -11 -22 -21 -97 -15 -101 9 -3 14 4 17 35 18 30 1 86 12
88 18 1 1 1 -8 1 -19z m834 -20 c-20 -13 -33 -13 -25 0 3 6 14 10 23 10 15 0
15 -2 2 -10z m-275 -84 c8 -12 16 -34 19 -51 14 -76 21 -95 63 -175 74 -141
133 -430 87 -430 -8 0 -24 5 -35 10 -16 9 -17 15 -8 31 8 17 7 23 -8 35 -10 7
-15 14 -10 14 4 0 1 14 -8 30 -17 33 -39 37 -69 15 -10 -8 -23 -12 -27 -9 -5
3 -9 0 -9 -6 0 -7 -7 -10 -15 -6 -8 3 -15 1 -15 -4 0 -5 -10 -12 -22 -16 -13
-4 -26 -11 -29 -17 -4 -5 -10 1 -14 13 -6 18 0 28 26 51 19 16 39 29 45 29 14
0 49 38 42 45 -3 3 -32 -12 -65 -34 -53 -36 -103 -50 -103 -29 0 5 -11 13 -25
20 -13 6 -22 14 -20 19 3 4 1 10 -5 14 -5 3 -10 10 -10 14 0 8 132 72 176 85
25 8 60 43 51 52 -3 3 -26 -6 -52 -21 -61 -36 -119 -31 -170 13 -39 35 -36 40
33 52 103 18 192 47 192 62 0 6 -7 8 -15 5 -19 -8 -26 5 -31 56 -5 42 -26 69
-47 62 -7 -3 -25 -10 -42 -16 -55 -21 -205 -21 -205 0 0 4 25 13 54 20 30 7
95 29 143 50 102 44 110 45 128 17z m-895 -127 c3 -3 15 -9 27 -13 27 -9 160
-96 148 -97 -6 0 -34 0 -62 1 l-53 1 0 -31 c0 -28 -2 -31 -15 -20 -11 9 -13
15 -5 20 8 5 7 9 -3 13 -8 3 -24 25 -36 49 -12 23 -33 63 -47 87 l-26 44 33
-24 c19 -12 36 -26 39 -30z m4938 -23 c23 4 25 4 9 -6 -21 -14 -47 -6 -46 12
0 10 2 10 6 1 3 -8 15 -11 31 -7z m-297 -14 c-7 -2 -18 1 -23 6 -8 8 -4 9 13
5 13 -4 18 -8 10 -11z m243 10 c10 -17 -102 -30 -138 -16 -34 13 -13 21 58 23
41 1 77 -2 80 -7z m174 1 c-15 -2 -42 -2 -60 0 -18 2 -6 4 27 4 33 0 48 -2 33
-4z m-631 -15 c-21 -7 -32 -7 -40 1 -8 8 0 11 29 10 39 -1 39 -1 11 -11z
m-4243 -218 c14 -22 26 -46 26 -55 0 -8 5 -15 10 -15 6 0 10 -7 10 -15 0 -8
10 -25 23 -37 12 -13 23 -30 25 -38 3 -14 -64 53 -118 118 -26 31 -43 30 -76
-2 -6 -6 -38 -32 -72 -56 -34 -25 -61 -52 -61 -60 0 -8 38 -49 84 -90 46 -41
83 -79 81 -85 -4 -17 -43 -17 -59 -1 -9 9 -22 16 -29 17 -11 0 -11 2 0 6 8 3
-2 16 -28 35 -35 26 -45 29 -65 20 -13 -6 -32 -23 -41 -37 -17 -25 -16 -28 1
-58 10 -18 48 -69 84 -113 36 -45 74 -96 84 -113 18 -31 18 -31 -4 -31 -13 0
-41 20 -70 51 -27 29 -49 54 -49 57 0 6 -63 86 -71 90 -3 1 -21 16 -40 33 -57
51 -82 60 -146 52 -71 -8 -125 -8 -147 0 -12 5 -15 13 -10 34 4 15 7 33 7 40
0 6 3 12 6 11 3 0 13 0 21 1 13 1 13 2 0 11 -12 7 -11 10 5 16 11 4 43 16 70
27 75 29 284 97 300 97 7 0 15 3 17 8 4 9 103 82 112 82 4 0 16 9 28 20 34 31
62 25 92 -20z m1632 -69 c-3 -5 -44 -21 -91 -36 -47 -15 -85 -31 -85 -36 0 -6
3 -8 8 -6 13 8 233 77 245 77 23 0 -10 -17 -103 -54 -146 -57 -148 -59 -127
-64 10 -2 24 1 30 7 19 15 67 32 67 22 0 -9 -26 -21 -195 -86 -66 -26 -128
-51 -137 -56 -10 -5 -23 -9 -30 -9 -6 0 -25 -12 -40 -27 -20 -19 -31 -24 -39
-16 -8 8 0 19 28 39 58 43 62 48 16 24 -23 -12 -47 -28 -54 -36 -6 -8 -18 -14
-27 -14 -20 0 16 39 78 85 52 38 233 130 276 141 16 4 34 10 39 14 9 6 67 22
120 34 11 2 21 4 23 5 2 0 1 -3 -2 -8z m129 -20 c-16 -15 -166 -74 -172 -67
-3 3 3 9 13 13 10 4 51 19 89 34 79 31 83 32 70 20z m105 6 c0 -5 -55 -263
-73 -347 -62 -276 -87 -370 -99 -370 -9 0 -6 29 6 48 4 7 6 16 3 18 -5 5 7 61
29 147 3 12 7 29 8 37 1 9 4 20 8 25 5 9 10 28 25 85 2 8 5 26 7 40 2 14 7 42
11 62 10 51 -1 90 -23 86 -13 -2 -17 3 -15 25 1 21 -2 27 -12 24 -7 -3 -16 1
-19 9 -3 9 -1 12 4 9 6 -3 10 1 10 9 0 21 -1 21 -88 -21 -42 -21 -80 -37 -84
-35 -8 2 -94 -35 -188 -82 -36 -17 -72 -31 -80 -30 -8 0 -21 2 -28 2 -8 1 -12
9 -10 18 2 9 47 32 118 60 63 24 124 49 135 54 11 6 34 14 50 20 17 5 86 31
155 59 115 45 150 57 150 48z m-1605 -26 c-3 -5 -2 -12 3 -15 11 -7 7 -57 -6
-64 -17 -11 -100 -1 -105 12 -6 15 31 61 41 51 4 -4 1 -10 -5 -12 -18 -6 -16
-32 1 -29 18 2 48 27 41 34 -2 3 3 11 13 18 20 16 25 17 17 5z m127 -56 c3 3
11 -1 18 -10 11 -13 6 -15 -39 -15 -38 0 -51 4 -51 14 0 16 39 26 56 14 6 -4
13 -6 16 -3z m570 -62 c29 -32 41 -70 24 -76 -24 -9 -53 12 -60 43 -13 68 -5
76 36 33z m762 -23 c10 -21 25 -41 32 -44 16 -6 18 -54 4 -91 -6 -15 -7 -32
-3 -38 12 -19 12 -36 1 -44 -7 -4 -8 -1 -3 7 5 8 4 11 -3 6 -10 -6 -28 -103
-25 -133 0 -7 -2 -13 -6 -13 -4 0 -8 -6 -8 -12 -1 -7 -6 -39 -13 -72 -6 -32
-12 -67 -13 -77 -1 -20 -22 -26 -32 -9 -5 8 3 66 20 150 14 66 27 127 31 150
2 14 9 46 15 72 9 39 8 53 -7 83 -9 20 -23 39 -29 42 -7 2 -67 -17 -133 -43
l-121 -47 -21 -49 c-21 -48 -45 -60 -45 -22 1 31 25 114 33 112 10 -3 85 23
100 35 6 5 12 6 12 2 0 -4 30 9 66 29 36 20 63 32 60 27 -3 -5 5 -4 19 2 14 7
25 15 25 19 0 19 27 -7 44 -42z m-1172 20 c87 -11 186 -27 220 -36 35 -9 72
-18 83 -20 11 -2 29 -8 40 -13 11 -6 40 -16 65 -22 27 -8 38 -14 27 -16 -9 -3
-56 7 -105 21 -125 35 -156 41 -147 26 8 -13 -15 -12 -137 6 -25 4 -38 2 -38
-6 0 -6 3 -9 8 -7 9 6 132 -19 140 -29 7 -7 -101 1 -128 10 -8 2 -49 7 -90 10
-110 8 -158 17 -164 31 -2 7 5 16 17 20 26 8 18 11 -46 20 -26 3 -45 10 -42
14 9 15 139 11 297 -9z m-247 -38 c-3 -3 -11 0 -18 7 -9 10 -8 11 6 5 10 -3
15 -9 12 -12z m-248 -8 c-3 -3 -12 -4 -19 -1 -8 3 -5 6 6 6 11 1 17 -2 13 -5z
m720 -30 c-3 -3 -12 -4 -19 -1 -8 3 -5 6 6 6 11 1 17 -2 13 -5z m271 -53 c8
-5 -1 -8 -25 -9 -29 0 -33 2 -18 8 26 11 28 11 43 1z m-443 -80 c3 -5 2 -12
-3 -15 -5 -3 -9 1 -9 9 0 17 3 19 12 6z m493 -51 c3 -12 2 -13 -6 -1 -8 11
-11 11 -18 0 -4 -8 -3 -14 5 -17 9 -3 8 -10 -3 -27 -17 -26 -12 -36 12 -28 14
4 15 3 3 -5 -12 -9 -13 -15 -3 -37 7 -15 8 -24 2 -20 -5 3 -10 0 -10 -8 0 -14
-49 -42 -58 -32 -3 3 0 5 7 5 7 0 9 5 4 13 -4 6 -6 21 -5 32 2 19 2 19 -8 2
-19 -30 -21 -64 -5 -71 8 -3 15 -16 15 -30 0 -13 6 -26 13 -29 11 -4 15 -36 7
-57 -1 -3 -2 -16 -2 -30 l1 -25 -8 25 c-7 25 -7 24 -14 -7 -5 -24 -10 -31 -22
-27 -9 4 -15 3 -14 -2 3 -18 -1 -25 -11 -19 -8 5 -8 11 -1 19 8 9 7 13 -4 13
-8 0 -11 -5 -8 -10 3 -6 1 -7 -5 -3 -6 3 -13 2 -17 -4 -3 -5 1 -10 10 -10 9 0
13 -4 10 -10 -8 -13 11 -13 34 -1 13 7 20 5 29 -9 10 -16 9 -18 -4 -13 -13 5
-15 1 -10 -18 6 -20 5 -21 -4 -6 -6 9 -8 22 -5 27 10 15 -11 12 -24 -4 -10
-11 -8 -17 6 -25 17 -9 17 -10 -1 -24 -16 -12 -17 -15 -3 -20 11 -4 14 -15 10
-42 -4 -28 -2 -35 7 -30 10 6 10 3 2 -11 -6 -11 -7 -27 -1 -42 7 -17 6 -21 -3
-16 -8 5 -9 2 -5 -9 7 -18 -7 -32 -23 -22 -8 5 -7 12 2 22 15 19 20 71 7 79
-5 3 -7 10 -3 15 3 5 2 9 -3 8 -20 -4 -34 2 -28 12 4 6 13 8 19 6 7 -3 13 1
13 9 0 7 -4 11 -9 8 -4 -3 -8 2 -8 10 0 9 -2 16 -4 16 -2 0 -11 3 -20 6 -10 4
-16 1 -16 -10 0 -10 5 -13 18 -9 14 5 15 4 6 -8 -6 -8 -10 -22 -9 -31 2 -9 -3
-19 -11 -22 -14 -5 -28 9 -21 22 3 4 6 27 8 52 1 25 9 53 18 63 12 15 13 20 2
26 -10 7 -9 9 3 14 8 3 13 14 11 25 -4 24 10 47 24 38 6 -4 9 -12 5 -17 -3 -5
-11 -6 -17 -2 -9 5 -9 3 0 -8 14 -17 63 -24 63 -8 0 6 -7 8 -16 5 -8 -3 -12
-2 -9 3 3 5 1 12 -5 16 -5 3 -10 13 -10 21 0 11 6 13 22 8 20 -6 21 -5 9 10
-11 13 -11 16 0 16 11 0 11 2 -1 10 -9 6 -10 10 -3 10 6 0 11 8 10 18 -1 15
-5 17 -23 8 -15 -7 -19 -13 -11 -18 9 -6 9 -8 1 -8 -6 0 -17 7 -24 16 -8 8 -9
14 -4 12 5 -2 9 2 9 7 0 6 -3 9 -6 8 -3 -1 -6 4 -6 12 0 8 4 12 9 9 4 -3 8 2
8 11 0 9 4 14 9 10 6 -3 8 24 6 67 -2 64 0 74 20 93 27 24 86 28 93 5z m-1785
-19 c5 -1 5 -5 2 -11 -9 -15 -32 -12 -38 4 -4 9 0 13 11 11 9 -2 21 -4 25 -4z
m4127 -32 c0 -6 12 -10 28 -9 42 3 52 1 52 -11 0 -6 -9 -8 -20 -4 -20 6 -75
-26 -64 -37 3 -3 -7 -5 -21 -5 l-26 0 30 18 c17 10 31 21 31 24 0 4 -4 4 -9 1
-12 -8 -41 4 -41 16 0 5 5 6 10 3 6 -3 10 -1 10 4 0 6 5 11 10 11 6 0 10 -5
10 -11z m-78 -14 c8 3 21 -1 28 -9 7 -9 17 -13 24 -9 6 3 6 0 -1 -7 -11 -12
-15 -11 -26 5 -9 11 -16 14 -21 7 -3 -6 -2 -13 4 -17 12 -7 4 -25 -11 -25 -5
0 -9 9 -9 19 0 24 -16 36 -23 19 -3 -7 -4 -3 -4 9 1 16 5 19 13 12 6 -5 18 -7
26 -4z m288 1 c0 -3 -7 -12 -16 -20 -17 -18 -39 -22 -29 -6 3 6 2 10 -4 10
-17 0 -24 -22 -10 -31 7 -4 10 -11 6 -15 -4 -4 -14 1 -22 12 -8 11 -15 14 -15
7 0 -20 -20 -15 -20 5 -1 16 -2 16 -15 -2 -13 -17 -15 -17 -30 -3 -18 19 -10
24 33 21 17 -1 32 2 32 6 0 4 14 6 30 5 17 -1 30 2 30 7 0 4 7 8 15 8 8 0 15
-2 15 -4z m92 -18 c7 7 17 12 23 12 5 0 3 -5 -5 -10 -11 -7 -6 -9 17 -7 18 1
33 6 33 11 0 5 7 3 15 -4 8 -7 15 -24 15 -39 0 -20 -5 -27 -20 -27 -13 0 -19
5 -15 13 3 10 0 11 -15 3 -25 -14 -30 -13 -24 5 4 8 13 15 21 15 8 0 11 5 7
11 -4 7 -10 7 -16 1 -6 -6 -16 -8 -23 -6 -8 3 -12 -2 -12 -13 2 -13 -5 -18
-25 -18 -29 -1 -36 9 -17 21 6 3 15 0 20 -7 12 -20 11 -2 -2 22 -10 20 -11 20
-24 2 -9 -10 -14 -13 -15 -5 0 6 -5 12 -10 12 -7 0 -7 -6 -1 -18 8 -15 5 -18
-20 -20 -16 -1 -29 3 -29 9 0 6 9 8 23 4 16 -5 18 -4 8 4 -12 8 -13 12 -2 25
10 12 17 14 27 5 11 -9 15 -7 20 6 7 17 8 17 21 -1 10 -14 16 -15 25 -6z
m-432 8 c0 -2 -8 -10 -17 -17 -16 -13 -17 -12 -4 4 13 16 21 21 21 13z m564
-10 c-3 -7 2 -16 10 -19 9 -4 16 -13 16 -22 0 -8 5 -15 10 -15 6 0 10 -8 10
-17 -1 -17 -1 -17 -14 -1 -7 10 -16 14 -20 10 -5 -4 -6 2 -4 12 1 10 -3 21
-10 23 -9 4 -11 -3 -7 -24 5 -27 5 -27 -6 -5 -9 17 -9 28 -1 47 12 26 25 35
16 11z m81 -4 c-3 -3 -11 0 -18 7 -9 10 -8 11 6 5 10 -3 15 -9 12 -12z m48 -6
c-4 -5 1 -7 11 -3 14 6 16 3 11 -14 -5 -13 -3 -19 3 -15 5 3 9 0 8 -7 0 -6 4
-13 9 -14 12 -4 14 18 3 34 -6 7 -4 14 4 19 7 4 10 4 6 0 -4 -5 5 -19 19 -32
23 -21 24 -24 7 -25 -16 0 -16 -2 4 -9 22 -10 31 -30 11 -30 -5 0 -8 4 -5 9 3
5 -4 11 -16 14 -13 4 -26 1 -30 -6 -6 -9 -8 -9 -8 1 0 7 -4 10 -10 7 -5 -3
-10 2 -10 12 0 10 -11 30 -25 45 -22 24 -23 27 -6 25 11 -1 17 -5 14 -11z
m-666 -12 c-3 -3 -12 -4 -19 -1 -8 3 -5 6 6 6 11 1 17 -2 13 -5z m608 -24 c-5
-8 -11 -8 -17 -2 -6 6 -7 16 -3 22 5 8 11 8 17 2 6 -6 7 -16 3 -22z m55 -23
c0 -10 -4 -16 -10 -12 -5 3 -7 12 -4 19 3 8 0 17 -7 22 -8 4 -10 3 -5 -5 9
-13 -12 -43 -24 -36 -5 3 -2 19 7 36 14 28 16 29 29 12 7 -10 14 -26 14 -36z
m-665 23 c-3 -5 -12 -10 -18 -10 -7 0 -6 4 3 10 19 12 23 12 15 0z m-62 -30
c-3 -11 -7 -20 -9 -20 -2 0 -4 9 -4 20 0 11 4 20 9 20 5 0 7 -9 4 -20z m-2221
-42 c-7 -7 -12 -8 -12 -2 0 14 12 26 19 19 2 -3 -1 -11 -7 -17z m15 -21 c0 -8
-6 -14 -14 -14 -17 0 -17 14 0 20 6 3 12 6 13 6 0 1 1 -5 1 -12z m2173 -26 c0
-17 -11 -18 -173 -18 -95 0 -179 -3 -187 -8 -7 -5 -11 -4 -7 1 3 5 -56 8 -141
7 -332 -4 -718 -4 -737 0 -11 3 -40 9 -65 13 -65 13 143 18 783 21 509 3 527
2 527 -16z m1500 -2 c41 -4 116 -10 165 -13 50 -4 113 -9 140 -11 28 -3 84 -7
125 -10 272 -19 474 -36 479 -40 2 -3 -58 -5 -135 -6 -76 0 -204 -1 -284 -1
-180 -2 -520 19 -589 36 -14 3 -31 0 -40 -7 -9 -7 -12 -8 -8 -1 4 8 -3 12 -21
11 -77 0 -158 7 -169 16 -7 5 -13 16 -13 24 0 12 23 14 138 12 75 -1 171 -6
212 -10z m-3762 -17 c-10 -2 -15 -9 -11 -18 3 -8 1 -14 -5 -14 -5 0 -12 10
-14 23 -4 21 -1 23 21 18 18 -3 21 -6 9 -9z m-817 -17 c5 4 6 -1 2 -10 -5 -13
-7 -14 -14 -3 -5 7 -8 18 -8 23 0 6 3 4 6 -3 2 -6 9 -10 14 -7z m262 -5 c3
-11 1 -18 -4 -14 -5 3 -9 12 -9 20 0 20 7 17 13 -6z m1804 -6 c-3 -3 -12 -4
-19 -1 -8 3 -5 6 6 6 11 1 17 -2 13 -5z m-2095 -11 c-6 -2 -9 -10 -6 -15 4 -7
2 -8 -5 -4 -13 9 -5 26 12 25 9 0 8 -2 -1 -6z m314 -24 c3 -6 1 -16 -6 -22
-10 -9 -11 -9 -5 2 4 8 2 17 -6 22 -9 6 -10 9 -2 9 6 0 15 -5 19 -11z m101
-19 c3 0 2 8 -1 17 -4 10 -3 14 1 9 13 -12 10 -56 -3 -56 -17 0 -26 -28 -11
-34 9 -3 9 -5 0 -5 -6 -1 -15 4 -18 9 -4 6 -13 7 -24 1 -12 -7 -18 -6 -18 2 0
7 -4 20 -8 30 -4 10 -3 17 4 17 6 0 11 -9 11 -20 0 -11 5 -20 10 -20 6 0 10 9
10 19 0 11 4 22 10 26 5 3 6 13 3 23 -6 16 -6 16 11 0 9 -10 20 -18 23 -18z
m498 -30 c3 -5 1 -10 -4 -10 -6 0 -11 5 -11 10 0 6 2 10 4 10 3 0 8 -4 11 -10z
m2272 -22 c-3 -7 -5 -2 -5 12 0 14 2 19 5 13 2 -7 2 -19 0 -25z m-2296 -96
c-7 -13 -7 -22 1 -30 9 -9 8 -12 -3 -12 -9 0 -15 11 -15 30 -1 16 2 27 7 24 5
-3 9 0 9 7 0 7 3 10 6 7 3 -4 1 -15 -5 -26z m652 -2 c65 -24 142 -93 151 -135
13 -55 6 -106 -19 -146 -14 -21 -25 -44 -25 -50 0 -28 -140 -266 -203 -347
-23 -29 -49 -64 -58 -77 -8 -14 -29 -39 -45 -57 -26 -30 -51 -64 -79 -110 -5
-9 -30 -46 -55 -82 -40 -59 -48 -66 -70 -60 -14 3 -32 12 -41 20 -9 8 -18 11
-22 8 -4 -4 -5 3 -2 14 2 12 0 24 -4 27 -16 9 -2 54 33 109 20 32 34 61 31 67
-4 5 -2 9 3 9 10 0 92 106 92 120 0 4 4 10 9 12 5 2 11 10 13 18 2 8 13 23 25
33 13 10 22 21 20 25 -4 13 40 62 48 54 5 -4 5 -2 1 5 -3 6 2 20 12 30 11 10
36 45 58 78 122 191 124 196 81 281 -46 91 -54 97 -143 101 -43 2 -87 5 -96 7
-10 2 -18 1 -18 -4 0 -9 -50 -23 -57 -17 -5 6 84 61 122 75 52 18 178 14 238
-8z m4013 -46 c1 -9 0 -13 -4 -10 -3 4 -7 14 -8 22 -1 9 0 13 4 10 3 -4 7 -14
8 -22z m-429 1 c0 -8 -4 -12 -9 -9 -5 3 -6 10 -3 15 9 13 12 11 12 -6z m-4731
-20 c-1 -8 -6 -18 -11 -22 -4 -4 -5 -2 -1 5 4 7 2 12 -6 12 -9 0 -9 3 2 10 19
12 19 13 16 -5z m443 -19 c0 -11 -3 -15 -6 -8 -2 6 -10 9 -16 5 -7 -4 -8 0 -3
13 5 14 4 16 -4 8 -9 -9 -9 -17 0 -33 6 -12 8 -27 4 -34 -5 -8 -2 -7 9 2 9 7
17 9 17 3 0 -5 -7 -15 -15 -22 -12 -10 -19 -7 -40 16 -33 35 -31 49 9 71 27
15 46 5 45 -21z m-479 4 c0 -5 -5 -10 -11 -10 -5 0 -7 5 -4 10 3 6 8 10 11 10
2 0 4 -4 4 -10z m2867 -52 c-3 -8 -6 -5 -6 6 -1 11 2 17 5 13 3 -3 4 -12 1
-19z m-3262 -17 c-6 -5 -25 10 -25 20 0 5 6 4 14 -3 8 -7 12 -15 11 -17z m805
10 c0 -5 9 -13 20 -16 12 -4 17 -11 13 -18 -5 -9 -3 -9 8 0 11 9 18 8 32 -2
17 -12 17 -14 -5 -21 -13 -4 -40 -8 -61 -9 -29 -2 -35 1 -26 11 6 7 7 19 3 25
-4 8 -3 9 4 5 16 -9 15 7 0 22 -9 9 -9 12 0 12 7 0 12 -4 12 -9z m5 -81 c-3
-5 -2 -10 4 -10 5 0 12 5 14 10 3 6 4 5 3 -2 -1 -7 -15 -14 -30 -15 -23 -2
-26 0 -16 13 14 16 35 20 25 4z m-849 -47 c-3 -8 2 -13 15 -13 11 0 19 -6 18
-12 -3 -27 1 -38 15 -38 8 0 18 -4 21 -10 3 -6 -1 -7 -9 -4 -9 4 -16 1 -16 -6
0 -10 -3 -10 -15 0 -8 7 -15 23 -15 36 0 17 -6 24 -19 24 -13 0 -19 6 -18 18
0 10 7 19 14 19 8 0 12 -6 9 -14z m0 -45 c4 -7 3 -8 -4 -4 -7 4 -12 1 -12 -8
0 -8 5 -17 10 -19 6 -3 5 -4 -2 -3 -15 3 -24 46 -9 46 5 0 13 -5 17 -12z
m1037 -474 c-4 -48 -6 -53 -15 -48 -5 3 -6 9 -3 14 8 13 -9 20 -25 10 -30 -19
23 -142 99 -229 28 -32 111 -71 152 -71 36 0 53 14 29 22 -7 2 -1 21 12 46 13
23 27 40 32 39 6 -2 16 -31 24 -64 17 -71 19 -68 -68 -124 -77 -51 -152 -89
-173 -89 -17 0 -39 37 -30 52 8 15 -51 21 -84 9 -19 -7 -36 -11 -37 -9 -14 16
-105 192 -102 196 3 2 1 15 -4 28 -7 17 -5 27 6 39 19 18 33 19 35 3 1 -7 3
-20 4 -28 1 -8 3 -30 4 -48 0 -21 5 -32 13 -30 12 4 14 18 22 153 3 44 6 81 7
83 1 1 2 12 2 25 1 15 12 27 37 38 49 23 66 18 63 -17z m-802 -15 c25 -6 60
-33 115 -89 83 -85 100 -108 68 -96 -10 4 -37 10 -59 12 -64 9 -120 41 -190
110 -36 36 -65 69 -65 74 0 9 78 3 131 -11z m2281 -166 c-2 -24 -8 -43 -13
-43 -5 0 -7 12 -3 28 17 75 23 81 16 15z m868 -35 c0 -6 -6 -5 -15 2 -8 7 -15
14 -15 16 0 2 7 1 15 -2 8 -4 15 -11 15 -16z m-3018 -35 c10 -9 44 -55 77
-102 57 -83 92 -168 91 -221 0 -14 2 -59 5 -100 5 -69 15 -656 15 -847 0 -73
2 -83 18 -83 26 0 120 -100 127 -135 11 -55 -69 -197 -115 -203 -14 -2 -39
-17 -58 -33 -18 -16 -35 -29 -38 -29 -15 0 -64 43 -64 56 0 14 -5 16 -45 18
-11 1 -26 5 -33 9 -8 5 -11 4 -10 -4 2 -6 -11 -20 -29 -31 -30 -18 -33 -18
-57 -3 -14 10 -23 22 -19 28 3 6 1 7 -5 3 -7 -4 -23 5 -37 20 -28 30 -29 33
-15 54 7 12 12 12 29 -4 12 -11 22 -15 22 -10 7 45 4 61 -10 56 -8 -3 -12 -1
-8 5 4 5 -7 31 -23 56 -15 25 -26 48 -23 51 4 3 0 6 -7 6 -7 0 -10 3 -7 6 3 4
-2 18 -13 32 -11 13 -17 28 -14 33 3 5 0 9 -5 9 -19 0 -11 25 15 43 15 12 33
16 47 12 17 -5 18 -4 7 4 -18 12 -11 20 19 23 15 2 25 -3 26 -12 10 -58 14
-93 9 -82 -3 6 -11 12 -17 12 -6 0 -19 7 -29 17 -17 15 -18 15 -16 -10 1 -14
4 -24 7 -22 2 3 14 -7 27 -20 13 -14 28 -25 34 -25 5 0 10 -4 10 -10 0 -5 3
-9 8 -8 4 1 56 -22 116 -50 60 -29 119 -52 131 -52 22 0 115 66 115 82 0 4
-11 6 -25 2 -15 -4 -25 -2 -26 5 -1 6 -3 16 -4 21 -1 6 -3 24 -4 42 -2 55 -15
19 -16 -44 0 -49 -4 -63 -20 -74 -17 -11 -25 -10 -55 4 -32 15 -69 47 -71 61
0 3 -2 24 -4 46 -2 22 -7 76 -9 120 -3 44 -8 94 -10 110 -6 44 -19 247 -21
350 -2 50 -4 90 -4 90 -8 0 -4 126 4 129 6 3 3 9 -5 15 -13 10 -13 12 0 21 8
5 11 10 5 10 -6 0 -11 30 -12 68 -3 160 -7 193 -22 212 -9 10 -25 31 -36 45
-45 57 -73 84 -80 77 -5 -4 -5 -1 -1 6 4 7 1 15 -8 18 -9 3 -13 10 -10 15 5 9
-11 13 -31 9 -5 -1 -7 2 -3 5 4 4 1 20 -7 36 -14 26 -13 28 5 34 11 4 18 10
15 15 -3 5 4 11 15 15 11 4 18 11 15 16 -3 5 1 6 10 3 8 -4 22 -1 30 6 8 6 19
9 25 5 5 -3 10 -2 10 4 0 12 68 -15 92 -36z m2148 -13 c0 -14 -5 -18 -17 -13
-12 5 -13 8 -4 11 11 4 11 6 0 13 -11 7 -10 9 4 9 10 0 17 -8 17 -20z m-6 -87
c-3 -32 -6 -69 -6 -83 0 -13 -6 -33 -14 -44 -14 -20 -14 -20 -14 2 0 13 4 21
8 18 5 -3 7 33 6 80 -2 66 0 84 11 84 11 0 13 -13 9 -57z m863 5 c-3 -7 -5 -2
-5 12 0 14 2 19 5 13 2 -7 2 -19 0 -25z m8 -68 c-3 -5 -12 -10 -18 -10 -7 0
-6 4 3 10 19 12 23 12 15 0z m-2325 -55 c11 -29 15 -47 31 -125 20 -99 38
-139 66 -146 30 -8 80 15 61 27 -7 5 -13 23 -13 41 0 25 -4 33 -17 32 -10 -1
-15 2 -12 7 3 5 0 17 -6 28 -7 13 -7 22 0 26 6 4 8 11 4 16 -3 5 -11 6 -17 2
-7 -4 -16 -8 -22 -8 -5 0 -9 -9 -7 -19 2 -10 -1 -15 -7 -12 -10 6 -11 45 -1
44 22 -2 31 4 26 17 -7 19 28 55 54 55 26 0 38 -25 44 -96 8 -82 15 -113 37
-156 26 -51 24 -61 -15 -82 -34 -18 -58 -18 -189 -4 -10 1 -15 8 -13 15 3 7 1
13 -3 13 -5 0 -11 -5 -13 -12 -3 -7 -7 -5 -11 6 -4 9 -3 15 2 11 5 -3 12 -1
16 5 6 9 -11 14 -43 13 -10 -1 -10 3 2 16 21 23 21 23 7 50 -11 20 -11 23 1
19 9 -4 14 1 15 13 1 12 -5 19 -15 19 -13 0 -14 2 -4 8 14 9 19 105 9 165 -6
29 -4 37 8 37 9 0 20 -11 25 -25z m194 0 c-4 -8 -7 -15 -9 -15 -2 0 -5 7 -9
15 -3 9 0 15 9 15 9 0 12 -6 9 -15z m-485 -25 c-9 -6 -8 -12 4 -25 22 -21 21
-26 0 -18 -16 6 -16 5 -4 -10 19 -24 10 -28 -11 -5 -10 10 -14 18 -8 18 5 0 7
13 5 29 -3 23 0 28 12 24 11 -4 12 -8 2 -13z m1738 -54 c-1 -30 -5 -49 -9 -43
-6 9 -8 9 -8 -1 0 -7 -5 -10 -11 -7 -7 5 -4 14 7 27 11 11 14 22 9 26 -21 15
-12 50 12 52 1 0 1 -24 0 -54z m876 29 c-3 -9 -8 -14 -10 -11 -3 3 -2 9 2 15
9 16 15 13 8 -4z m-1406 -17 c-3 -8 -6 -5 -6 6 -1 11 2 17 5 13 3 -3 4 -12 1
-19z m-817 -43 c-10 -12 -10 -18 0 -30 7 -8 11 -15 9 -16 -31 -6 -40 -6 -45 2
-3 5 0 8 8 7 7 -2 12 3 10 11 -3 12 15 41 25 41 3 0 0 -7 -7 -15z m2230 -25
c0 -5 -5 -10 -11 -10 -5 0 -7 5 -4 10 3 6 8 10 11 10 2 0 4 -4 4 -10z m-895
-32 c3 -13 4 -38 3 -56 -3 -27 -5 -30 -14 -17 -9 13 -13 13 -17 3 -4 -10 -6
-10 -6 0 -1 7 6 15 14 18 8 4 15 10 15 16 0 5 -4 7 -8 4 -4 -2 -8 9 -7 25 0
34 12 38 20 7z m-1870 -17 c3 -5 2 -12 -3 -15 -5 -3 -9 1 -9 9 0 17 3 19 12 6z
m2762 -23 c-3 -8 -6 -5 -6 6 -1 11 2 17 5 13 3 -3 4 -12 1 -19z m-2737 -14 c0
-8 -19 -13 -24 -6 -3 5 1 9 9 9 8 0 15 -2 15 -3z m365 -52 c-3 -3 -11 0 -18 7
-9 10 -8 11 6 5 10 -3 15 -9 12 -12z m1473 -33 c2 -17 0 -20 -6 -10 -8 11 -10
11 -15 0 -2 -8 -4 -2 -3 13 1 34 20 31 24 -3z m2 -48 c0 -6 -4 -13 -10 -16 -5
-3 -10 1 -10 9 0 9 5 16 10 16 6 0 10 -4 10 -9z m-1162 -38 c-2 -15 -7 -22
-15 -18 -11 4 -11 0 -2 -18 12 -21 12 -21 19 -2 4 11 6 23 3 28 -2 4 1 7 6 7
15 0 14 -33 -1 -48 -9 -9 -9 -12 1 -12 9 0 11 -11 7 -39 -3 -21 -2 -41 1 -45
12 -11 10 -46 -1 -44 -7 2 -11 -1 -11 -7 0 -5 4 -9 9 -7 5 2 6 -4 3 -13 -4 -8
-2 -15 3 -15 5 0 6 -7 3 -17 -5 -12 -3 -14 7 -8 9 5 11 4 6 -3 -4 -6 -2 -20 4
-31 7 -13 7 -22 0 -26 -7 -4 -7 -12 0 -24 5 -10 9 -39 8 -65 0 -42 -2 -45 -15
-29 -14 17 -14 17 -9 1 3 -10 1 -18 -4 -18 -5 0 -9 11 -8 25 1 14 8 25 15 25
7 0 13 5 13 11 0 6 -8 8 -18 5 -13 -4 -19 -1 -19 9 0 9 5 14 12 12 6 -3 12 3
12 14 1 10 -4 17 -10 15 -7 -1 -9 -1 -4 1 4 3 4 10 0 16 -14 22 -14 49 -1 41
10 -6 10 -5 1 8 -7 8 -10 18 -7 21 3 3 -1 16 -9 28 -11 15 -13 28 -7 45 5 13
6 26 1 28 -4 3 -8 21 -9 41 -1 23 2 33 9 29 6 -3 8 -12 5 -20 -3 -7 -2 -15 2
-18 4 -2 9 7 10 21 1 17 -4 26 -17 30 -21 5 -39 55 -22 61 6 2 11 8 11 14 0 6
-7 7 -16 4 -8 -3 -12 -2 -9 3 3 6 14 9 25 8 14 -1 19 -8 18 -24z m2049 -5 c-3
-8 -6 -5 -6 6 -1 11 2 17 5 13 3 -3 4 -12 1 -19z m-907 -8 c0 -5 -5 -10 -11
-10 -5 0 -7 5 -4 10 3 6 8 10 11 10 2 0 4 -4 4 -10z m-1247 -15 c33 -5 37 -9
36 -33 -1 -15 1 -34 5 -43 6 -14 1 -16 -36 -14 -32 2 -36 1 -13 -4 47 -9 69
-26 62 -45 -4 -10 -11 -15 -16 -12 -4 3 -34 8 -65 11 -40 5 -56 3 -56 -5 0 -7
7 -10 15 -6 24 9 119 -12 131 -29 19 -25 27 -139 14 -200 -12 -60 -39 -89 -91
-100 -44 -10 -102 3 -95 20 3 10 0 12 -12 8 -15 -6 -15 -4 -4 10 16 19 12 51
-6 53 -29 3 -32 4 -32 14 0 5 7 7 15 4 12 -5 13 -1 4 25 -6 17 -15 31 -20 31
-4 0 -6 6 -3 13 3 9 -4 13 -23 13 -31 -1 -48 -17 -31 -27 6 -4 0 -6 -14 -6
-16 1 -24 7 -21 14 3 7 8 11 12 8 4 -2 8 2 8 10 0 13 -3 12 -18 -1 -17 -15
-18 -15 -16 4 1 13 6 18 15 14 10 -3 13 0 10 9 -3 8 -11 13 -17 12 -6 -2 -11
2 -11 7 0 6 3 10 8 11 4 0 15 2 25 4 9 2 17 -1 17 -7 0 -6 7 -4 17 3 9 8 14 9
10 3 -3 -6 0 -11 8 -11 10 0 12 4 5 12 -5 7 -6 15 -2 20 4 4 -4 5 -18 1 -14
-3 -19 -3 -12 0 6 3 12 12 12 20 0 18 40 34 82 34 17 0 29 3 25 6 -3 3 -22 6
-41 6 -24 0 -36 5 -36 14 0 8 3 14 8 15 25 3 61 11 87 19 24 8 16 9 -37 5 -37
-2 -69 -1 -72 3 -10 16 11 29 56 36 26 4 50 12 54 17 4 7 -4 9 -22 6 -16 -3
-45 -8 -66 -12 -23 -4 -39 -2 -43 5 -12 19 7 28 69 34 32 3 60 7 63 10 2 2 12
2 21 0 9 -1 34 -6 55 -9z m1260 -25 c-3 -11 -7 -20 -9 -20 -2 0 -4 9 -4 20 0
11 4 20 9 20 5 0 7 -9 4 -20z m-1456 -104 c3 -17 3 -28 -1 -24 -4 3 -6 8 -4
11 2 2 -3 11 -10 19 -7 9 -14 33 -17 54 l-4 39 15 -34 c8 -18 18 -47 21 -65z
m1430 62 c-3 -8 -6 -5 -6 6 -1 11 2 17 5 13 3 -3 4 -12 1 -19z m25 -20 c-2
-18 -5 -46 -5 -63 0 -16 -2 -22 -4 -12 -4 15 -7 16 -21 5 -15 -11 -15 -11 -5
3 7 9 10 19 7 22 -6 6 22 77 30 77 2 0 1 -15 -2 -32z m908 -32 c0 -3 -4 -8
-10 -11 -5 -3 -10 -1 -10 4 0 6 5 11 10 11 6 0 10 -2 10 -4z m-13 -73 c-3 -10
-5 -2 -5 17 0 19 2 27 5 18 2 -10 2 -26 0 -35z m-901 -24 c0 -14 -4 -16 -21
-7 -12 7 -15 13 -8 15 7 3 9 12 6 21 -6 14 -5 14 8 3 8 -8 15 -22 15 -32z
m-1541 -47 c-6 -7 -34 11 -29 19 3 5 11 3 19 -4 7 -6 12 -13 10 -15z m1522
-24 c-3 -8 -6 -5 -6 6 -1 11 2 17 5 13 3 -3 4 -12 1 -19z m-1607 -18 c6 -11 9
-20 8 -20 -2 0 -11 9 -21 20 -9 11 -13 20 -7 20 5 0 14 -9 20 -20z m1610 -21
c0 -5 -4 -9 -8 -9 -5 0 -9 7 -9 15 0 8 4 12 9 9 4 -3 8 -9 8 -15z m-1451 -25
c7 5 9 1 5 -8 -5 -14 -24 -23 -24 -12 0 2 -3 13 -6 23 -4 14 -4 15 4 4 5 -7
15 -11 21 -7z m51 7 c0 -5 -7 -12 -16 -15 -14 -5 -15 -4 -4 9 14 17 20 19 20
6z m1410 -5 c0 -3 -4 -8 -10 -11 -5 -3 -10 -1 -10 4 0 6 5 11 10 11 6 0 10 -2
10 -4z m-1440 -41 c0 -8 -4 -15 -10 -15 -5 0 -7 7 -4 15 4 8 8 15 10 15 2 0 4
-7 4 -15z m1437 -1 c-3 -3 -12 -4 -19 -1 -8 3 -5 6 6 6 11 1 17 -2 13 -5z
m-1372 -33 c-3 -6 -11 -11 -16 -11 -5 0 -4 6 3 14 14 16 24 13 13 -3z m281
-72 c1 -16 -2 -29 -6 -29 -12 0 -21 45 -10 48 6 2 7 9 3 15 -3 7 -2 8 3 4 5
-5 9 -22 10 -38z m555 14 c-12 -20 -14 -14 -5 12 4 9 9 14 11 11 3 -2 0 -13
-6 -23z m521 0 c-5 -24 -6 -25 -12 -8 -8 21 -4 35 9 35 5 0 6 -12 3 -27z
m-1202 -16 c0 -24 -37 -48 -79 -54 -47 -6 -71 8 -64 38 5 17 13 19 59 18 30
-1 57 1 61 4 11 11 23 8 23 -6z m-150 -7 c0 -5 -7 -7 -15 -4 -8 4 -15 8 -15
10 0 2 7 4 15 4 8 0 15 -4 15 -10z m247 -32 c-3 -7 -5 -2 -5 12 0 14 2 19 5
13 2 -7 2 -19 0 -25z m33 -31 c0 -13 -6 -31 -13 -41 -12 -16 -13 -16 -14 4 -1
13 2 18 9 14 8 -5 9 -1 5 10 -7 17 -2 36 9 36 2 0 4 -10 4 -23z m-151 -11 c9
-11 9 -16 -1 -22 -7 -4 -10 -4 -6 1 4 4 3 14 -3 22 -6 7 -9 13 -6 13 2 0 10
-6 16 -14z m1215 -15 c3 -5 -2 -15 -12 -22 -15 -12 -16 -12 -5 2 7 9 10 19 6
22 -3 4 -4 7 0 7 3 0 8 -4 11 -9z m-1049 -18 c-12 -31 -14 -53 -6 -53 10 0 7
-65 -4 -98 -5 -17 -3 -21 9 -16 23 9 20 -9 -4 -24 -19 -11 -20 -10 -15 24 2
20 7 44 10 54 3 10 1 21 -5 25 -5 3 -10 1 -10 -6 0 -7 -3 -9 -6 -6 -4 4 -2 12
4 20 6 7 7 18 3 26 -5 8 -2 25 8 42 18 32 27 38 16 12z m4600 5 c5 4 5 1 1 -6
-6 -10 -11 -10 -22 -1 -8 6 -14 14 -14 16 0 3 6 0 13 -6 8 -6 18 -7 22 -3z
m-3545 -28 c-6 -11 -15 -20 -20 -20 -6 0 -2 9 7 20 10 11 19 20 21 20 1 0 -2
-9 -8 -20z m-1206 -15 c-4 -8 -10 -15 -15 -15 -4 0 -6 7 -3 15 4 8 10 15 15
15 4 0 6 -7 3 -15z m671 -24 c3 -5 2 -12 -3 -15 -5 -3 -9 1 -9 9 0 17 3 19 12
6z m4535 -1 c0 -5 -2 -10 -4 -10 -3 0 -8 5 -11 10 -3 6 -1 10 4 10 6 0 11 -4
11 -10z m-4010 -31 c0 -5 -4 -9 -8 -9 -5 0 -9 7 -9 15 0 8 4 12 9 9 4 -3 8 -9
8 -15z m-5 -79 c3 -5 2 -10 -4 -10 -5 0 -13 5 -16 10 -3 6 -2 10 4 10 5 0 13
-4 16 -10z m-1028 -62 c2 -27 0 -29 -7 -13 -11 26 -12 45 -2 45 4 0 8 -15 9
-32z m500 -5 c-3 -10 -5 -4 -5 12 0 17 2 24 5 18 2 -7 2 -21 0 -30z m-652 7
c3 -5 1 -10 -4 -10 -6 0 -11 5 -11 10 0 6 2 10 4 10 3 0 8 -4 11 -10z m650
-60 c3 -5 1 -10 -4 -10 -6 0 -11 5 -11 10 0 6 2 10 4 10 3 0 8 -4 11 -10z
m-494 -93 c1 -23 7 -47 11 -54 6 -7 5 -19 0 -30 -12 -22 -13 -35 -2 -48 5 -6
7 -20 5 -30 -2 -11 -4 -23 -4 -27 -1 -5 -5 -8 -10 -8 -6 0 -8 10 -6 21 3 12 1
27 -2 33 -11 16 -11 46 -1 46 5 0 2 7 -7 16 -11 11 -13 20 -6 28 11 13 9 55
-3 75 -5 8 -3 17 5 22 9 5 10 9 2 9 -7 0 -9 9 -5 22 5 22 6 22 13 -5 4 -15 9
-47 10 -70z m495 -3 c2 -12 -1 -13 -12 -3 -7 6 -11 16 -8 21 7 11 17 3 20 -18z
m-8 -39 c-3 -3 -9 2 -12 12 -6 14 -5 15 5 6 7 -7 10 -15 7 -18z m-1220 -9 c6
-29 -15 -43 -35 -24 -14 14 -14 20 -3 33 16 19 34 15 38 -9z m-217 -135 c57
-142 61 -147 101 -154 41 -8 100 4 106 21 2 7 -2 10 -12 6 -13 -5 -16 1 -16
29 0 30 -3 34 -20 30 -19 -5 -36 -26 -39 -45 -1 -11 -9 -10 -29 2 -16 11 -16
11 0 6 30 -9 28 9 -3 23 -17 7 -28 16 -25 19 3 2 11 1 18 -4 18 -13 51 -11 55
3 3 7 -3 9 -16 6 -12 -3 -28 0 -36 7 -8 6 -19 9 -25 5 -5 -3 -10 -1 -10 6 0 7
-11 27 -25 45 -34 45 -33 62 6 56 23 -3 37 2 59 23 21 21 35 26 53 21 50 -12
66 -37 81 -124 9 -54 21 -91 34 -105 44 -49 56 -109 25 -125 -16 -8 -122 -16
-183 -15 -40 1 -65 10 -63 22 2 6 -2 11 -8 11 -19 0 -48 44 -43 64 4 11 2 16
-4 12 -10 -6 -18 23 -29 99 -3 22 -10 46 -15 53 -6 6 -8 12 -5 12 4 0 0 17 -7
38 -15 40 -5 77 17 69 7 -2 33 -54 58 -116z m1956 87 c-3 -7 -5 -2 -5 12 0 14
2 19 5 13 2 -7 2 -19 0 -25z m-1 -130 c0 -10 -1 -18 -3 -18 -1 0 -7 8 -12 18
-7 13 -6 19 2 19 7 0 13 -9 13 -19z m-987 -14 c-7 -9 -8 -14 -1 -14 14 0 8
-48 -8 -63 -10 -10 -10 -7 0 12 8 17 9 26 1 34 -17 17 -14 58 4 51 12 -5 13
-10 4 -20z m9 -115 c-20 -13 -28 -11 -22 5 3 8 12 12 21 9 12 -5 12 -7 1 -14z
m12 -61 c0 -9 -3 -19 -8 -21 -4 -3 -7 10 -8 29 0 22 2 30 7 22 5 -7 9 -21 9
-30z m947 -10 c-3 -8 -6 -5 -6 6 -1 11 2 17 5 13 3 -3 4 -12 1 -19z m-6 -41
c-10 -9 -11 -8 -5 6 3 10 9 15 12 12 3 -3 0 -11 -7 -18z m-941 -7 c0 -11 -4
-20 -9 -20 -5 0 -7 9 -4 20 3 11 7 20 9 20 2 0 4 -9 4 -20z m-405 -10 c3 -5 1
-10 -4 -10 -6 0 -11 5 -11 10 0 6 2 10 4 10 3 0 8 -4 11 -10z m285 6 c0 -3 -4
-8 -10 -11 -5 -3 -10 -1 -10 4 0 6 5 11 10 11 6 0 10 -2 10 -4z"/>
<path d="M6591 7423 c0 -16 3 -21 6 -13 3 8 12 21 21 28 14 10 13 12 -6 12
-18 0 -22 -6 -21 -27z"/>
<path d="M6648 7443 c7 -3 16 -2 19 1 4 3 -2 6 -13 5 -11 0 -14 -3 -6 -6z"/>
<path d="M6350 7413 c0 -7 -8 -13 -17 -13 -13 0 -9 -6 12 -20 38 -25 45 -25
44 3 0 13 -3 16 -6 8 -4 -10 -9 -8 -19 10 -7 13 -13 18 -14 12z"/>
<path d="M6771 7408 c2 -39 13 -44 94 -44 l80 0 5 -78 c4 -62 2 -80 -10 -87
-12 -6 -9 -8 9 -9 13 0 21 3 18 6 -3 4 -1 16 4 27 9 16 13 17 20 6 5 -8 6 7 2
38 -5 43 -2 58 20 97 14 26 22 44 16 41 -5 -4 -16 -20 -25 -38 l-17 -31 -17
22 c-16 20 -26 22 -92 19 -76 -4 -101 4 -91 29 3 8 0 14 -6 14 -6 0 -11 -6
-10 -12z"/>
<path d="M5705 7390 c28 -12 55 -12 55 0 0 6 -17 10 -37 9 -31 0 -34 -2 -18
-9z"/>
<path d="M5782 7390 c10 -6 25 -7 40 -1 20 9 18 10 -17 10 -31 0 -36 -2 -23
-9z"/>
<path d="M6573 7382 c-24 -4 -32 -22 -10 -22 15 0 43 18 37 22 -3 2 -15 2 -27
0z"/>
<path d="M7290 7349 c25 -47 22 -104 -7 -149 -8 -14 -10 -20 -3 -13 7 6 19 9
26 6 11 -4 14 13 14 87 l0 92 89 -4 c49 -1 87 1 84 5 -3 4 -49 7 -103 6 -54
-1 -103 2 -110 6 -6 4 -2 -12 10 -36z"/>
<path d="M6278 7363 c7 -3 16 -2 19 1 4 3 -2 6 -13 5 -11 0 -14 -3 -6 -6z"/>
<path d="M5517 7303 c-12 -11 -7 -19 13 -20 11 -1 20 4 20 13 0 14 -21 19 -33
7z"/>
<path d="M6396 7262 c-2 -4 0 -29 4 -57 4 -27 8 -42 9 -32 0 10 9 17 21 17 17
0 19 3 11 18 -5 10 -9 26 -8 36 2 18 -29 32 -37 18z"/>
<path d="M5705 7239 c-4 -6 -5 -12 -2 -15 2 -3 7 2 10 11 7 17 1 20 -8 4z"/>
<path d="M5921 7234 c0 -11 3 -14 6 -6 3 7 2 16 -1 19 -3 4 -6 -2 -5 -13z"/>
<path d="M5920 7200 c0 -5 4 -10 9 -10 5 0 16 -3 25 -6 10 -4 16 -1 16 7 0 7
-3 9 -6 6 -4 -3 -15 -2 -25 4 -13 6 -19 6 -19 -1z"/>
<path d="M5985 7191 c4 -3 56 -6 116 -7 84 0 113 -4 120 -15 8 -11 9 -10 7 6
-3 19 -11 20 -126 21 -68 1 -120 -1 -117 -5z"/>
<path d="M6468 7193 c7 -3 16 -2 19 1 4 3 -2 6 -13 5 -11 0 -14 -3 -6 -6z"/>
<path d="M7010 7192 c0 -5 7 -15 15 -22 8 -7 15 -9 15 -6 0 4 -7 14 -15 22 -8
9 -15 11 -15 6z"/>
<path d="M5365 7180 c-3 -6 1 -7 9 -4 18 7 21 14 7 14 -6 0 -13 -4 -16 -10z"/>
<path d="M6592 7150 c0 -19 2 -27 5 -17 2 9 2 25 0 35 -3 9 -5 1 -5 -18z"/>
<path d="M6770 7128 c0 -32 4 -58 9 -58 12 0 12 82 0 101 -6 9 -9 -5 -9 -43z"/>
<path d="M5100 7166 c0 -2 7 -7 16 -10 8 -3 12 -2 9 4 -6 10 -25 14 -25 6z"/>
<path d="M7240 7155 c-11 -13 -10 -14 4 -9 9 3 16 10 16 15 0 13 -6 11 -20 -6z"/>
<path d="M7313 7130 c0 -25 2 -35 4 -22 2 12 2 32 0 45 -2 12 -4 2 -4 -23z"/>
<path d="M6437 7153 c-2 -5 -3 -17 -3 -28 1 -17 9 -20 64 -23 l62 -3 0 31 0
30 -59 0 c-33 0 -62 -3 -64 -7z"/>
<path d="M7070 7135 c14 -8 30 -14 35 -14 6 0 -1 6 -15 14 -14 8 -29 14 -35
14 -5 0 1 -6 15 -14z"/>
<path d="M6221 7124 c0 -11 3 -14 6 -6 3 7 2 16 -1 19 -3 4 -6 -2 -5 -13z"/>
<path d="M7173 7133 c-18 -2 -33 -9 -33 -15 0 -12 49 -2 65 13 5 5 7 8 5 7 -3
0 -20 -3 -37 -5z"/>
<path d="M7250 7115 c-10 -13 -9 -15 9 -15 12 0 21 6 21 15 0 8 -4 15 -9 15
-5 0 -14 -7 -21 -15z"/>
<path d="M6590 7090 c0 -18 -7 -20 -75 -20 -62 0 -75 -3 -75 -16 0 -11 -6 -15
-19 -11 -16 4 -20 -2 -26 -32 -3 -20 -13 -47 -22 -59 -15 -25 -14 -36 2 -24
10 7 22 27 59 95 l20 37 73 0 c71 0 73 1 73 25 0 14 -2 25 -5 25 -3 0 -5 -9
-5 -20z"/>
<path d="M5495 7089 c-4 -6 -14 -8 -24 -4 -13 5 -14 4 -3 -6 10 -11 15 -10 29
4 10 9 14 17 11 17 -4 0 -10 -5 -13 -11z"/>
<path d="M6220 7085 c0 -12 -23 -15 -127 -18 l-128 -3 133 -2 c126 -2 132 -1
132 18 0 11 -2 20 -5 20 -3 0 -5 -7 -5 -15z"/>
<path d="M7021 7070 c-13 -9 -61 -110 -52 -110 5 0 18 23 30 50 l22 50 71 0
c39 0 68 3 64 8 -9 8 -124 10 -135 2z"/>
<path d="M7175 7069 c-4 -5 5 -9 19 -9 14 0 26 4 26 8 0 11 -39 12 -45 1z"/>
<path d="M7250 7068 c0 -11 58 -10 64 0 3 5 -11 8 -29 8 -19 -1 -35 -4 -35 -8z"/>
<path d="M7396 6908 c-11 -6 -51 -10 -90 -10 -39 1 -89 -3 -111 -8 -30 -7 -13
-8 75 -7 91 2 120 6 140 20 27 19 16 23 -14 5z"/>
<path d="M6937 6903 c-15 -14 -5 -20 36 -20 23 0 31 2 17 4 -14 3 -30 9 -36
14 -6 5 -14 6 -17 2z"/>
<path d="M7043 6883 c9 -2 23 -2 30 0 6 3 -1 5 -18 5 -16 0 -22 -2 -12 -5z"/>
<path d="M6103 6784 c-3 -8 -1 -20 6 -27 8 -8 11 -4 11 16 0 30 -7 35 -17 11z"/>
<path d="M6192 6775 c0 -16 2 -22 5 -12 2 9 2 23 0 30 -3 6 -5 -1 -5 -18z"/>
<path d="M6050 6765 c-11 -13 -10 -14 4 -9 9 3 16 10 16 15 0 13 -6 11 -20 -6z"/>
<path d="M6151 6764 c0 -11 3 -14 6 -6 3 7 2 16 -1 19 -3 4 -6 -2 -5 -13z"/>
<path d="M6040 6220 c-22 -14 -5 -23 19 -10 12 6 21 7 21 1 0 -5 -5 -12 -10
-14 -6 -3 -5 -4 2 -3 7 1 14 10 16 19 4 19 -23 23 -48 7z"/>
<path d="M5730 6790 c0 -5 5 -10 11 -10 5 0 7 5 4 10 -3 6 -8 10 -11 10 -2 0
-4 -4 -4 -10z"/>
<path d="M5810 6790 c0 -5 5 -10 10 -10 6 0 10 5 10 10 0 6 -4 10 -10 10 -5 0
-10 -4 -10 -10z"/>
<path d="M6500 6776 c0 -9 7 -16 16 -16 9 0 14 5 12 12 -6 18 -28 21 -28 4z"/>
<path d="M6802 6774 c4 -21 22 -23 26 -1 2 10 -3 17 -13 17 -10 0 -15 -6 -13
-16z"/>
<path d="M7040 6776 c0 -21 21 -31 30 -15 5 7 6 17 4 21 -9 14 -34 9 -34 -6z"/>
<path d="M5665 6042 c-11 -1 -31 -5 -45 -8 -24 -5 -24 -6 -6 -20 36 -26 126
-12 126 19 0 7 -51 13 -75 9z"/>
<path d="M2580 4010 c0 -5 4 -10 9 -10 6 0 13 5 16 10 3 6 -1 10 -9 10 -9 0
-16 -4 -16 -10z"/>
<path d="M1844 3673 c-13 -10 -18 -28 -19 -73 -1 -33 0 -60 1 -60 3 0 34 61
34 67 0 2 -4 2 -9 -1 -5 -4 -8 2 -7 11 2 10 -1 21 -6 24 -5 3 -3 9 5 12 8 3
23 -1 34 -10 16 -13 16 -14 1 -9 -10 3 -20 1 -22 -3 -3 -5 4 -8 16 -7 18 1 22
7 23 31 1 34 -20 41 -51 18z m31 -3 c3 -5 1 -10 -4 -10 -6 0 -11 5 -11 10 0 6
2 10 4 10 3 0 8 -4 11 -10z"/>
<path d="M1865 3589 c2 -36 15 -51 15 -18 0 19 2 21 10 9 5 -8 7 -24 4 -35 -4
-17 -4 -18 6 -3 12 20 -1 63 -23 71 -10 4 -13 -3 -12 -24z"/>
<path d="M1865 3530 c3 -5 8 -10 11 -10 2 0 4 5 4 10 0 6 -5 10 -11 10 -5 0
-7 -4 -4 -10z"/>
<path d="M1810 3486 c0 -9 5 -16 10 -16 6 0 10 4 10 9 0 6 -4 13 -10 16 -5 3
-10 -1 -10 -9z"/>
<path d="M1855 3404 c1 -14 -4 -28 -13 -33 -8 -4 -11 -10 -6 -13 12 -6 39 23
40 44 1 9 -4 19 -11 22 -9 3 -12 -3 -10 -20z"/>
<path d="M1765 3252 c-5 -4 -11 -13 -13 -20 -2 -10 2 -10 18 -2 11 6 20 15 20
20 0 12 -11 13 -25 2z"/>
<path d="M1785 3220 c-3 -5 1 -10 10 -10 9 0 13 5 10 10 -3 6 -8 10 -10 10 -2
0 -7 -4 -10 -10z"/>
<path d="M4652 3570 c0 -14 2 -19 5 -12 2 6 2 18 0 25 -3 6 -5 1 -5 -13z"/>
<path d="M1353 3323 c-7 -3 -13 -14 -13 -26 0 -21 0 -21 16 1 17 25 16 32 -3
25z"/>
<path d="M1740 3085 c0 -5 5 -17 10 -25 5 -8 10 -10 10 -5 0 6 -5 17 -10 25
-5 8 -10 11 -10 5z"/>
<path d="M1026 792 c-3 -5 1 -9 9 -9 8 0 12 4 9 9 -3 4 -7 8 -9 8 -2 0 -6 -4
-9 -8z"/>
<path d="M1915 1640 c-3 -5 -1 -10 4 -10 6 0 11 5 11 10 0 6 -2 10 -4 10 -3 0
-8 -4 -11 -10z"/>
<path d="M2200 1403 c0 -6 8 -17 18 -24 16 -13 16 -13 2 6 -8 11 -16 22 -17
24 -2 2 -3 0 -3 -6z"/>
<path d="M2078 1463 c6 -2 18 -2 25 0 6 3 1 5 -13 5 -14 0 -19 -2 -12 -5z"/>
<path d="M1860 1255 c8 -11 19 -23 24 -26 11 -9 46 1 46 13 0 6 -7 8 -15 4 -8
-3 -15 -1 -15 5 0 6 -5 7 -10 4 -6 -4 -19 -1 -28 7 -16 12 -16 11 -2 -7z"/>
<path d="M2275 440 c3 -5 11 -10 16 -10 6 0 7 5 4 10 -3 6 -11 10 -16 10 -6 0
-7 -4 -4 -10z"/>
<path d="M1431 284 c13 -16 29 -19 29 -5 0 5 -9 11 -21 14 -16 4 -18 3 -8 -9z"/>
<path d="M7127 6614 c-8 -8 1 -24 12 -24 4 0 8 7 8 15 0 16 -9 20 -20 9z"/>
<path d="M7214 6598 c-3 -11 -3 -22 0 -25 3 -4 6 1 6 10 0 10 7 17 15 17 8 0
15 4 15 8 0 17 -30 8 -36 -10z"/>
<path d="M7290 6560 c0 -5 5 -10 10 -10 6 0 10 5 10 10 0 6 -4 10 -10 10 -5 0
-10 -4 -10 -10z"/>
<path d="M7560 6409 c0 -5 5 -7 10 -4 6 3 10 8 10 11 0 2 -4 4 -10 4 -5 0 -10
-5 -10 -11z"/>
</g>
</svg>
